<svg width="340" height="216" viewBox="0 0 340 216" fill="none" xmlns="http://www.w3.org/2000/svg">
<g clip-path="url(#clip0_426_4597)">
<rect x="14.8125" y="37" width="79" height="56" rx="16" fill="#E2A01C"/>
<rect x="285.812" y="37" width="80" height="56" rx="16" fill="#E2571C"/>
<rect x="104.812" y="19" width="80" height="74" rx="16" fill="#E3871C"/>
<rect x="195.812" width="79" height="93" rx="16" fill="#E26F1C"/>
<g opacity="0.2">
<mask id="mask0_426_4597" style="mask-type:alpha" maskUnits="userSpaceOnUse" x="104" y="102" width="81" height="46">
<rect opacity="0.6" width="80" height="46" rx="16" transform="matrix(1 0 0 -1 104.812 148)" fill="white"/>
</mask>
<g mask="url(#mask0_426_4597)">
<path d="M105.812 104L184.812 25" stroke="white"/>
<path d="M105.812 111L184.812 32" stroke="white"/>
<path d="M105.812 118L184.812 39" stroke="white"/>
<path d="M105.812 125L184.812 46" stroke="white"/>
<path d="M105.812 132L184.812 53" stroke="white"/>
<path d="M105.812 139L184.812 60" stroke="white"/>
<path d="M105.812 146L184.812 67" stroke="white"/>
<path d="M105.812 153L184.812 74" stroke="white"/>
<path d="M105.812 160L184.812 81" stroke="white"/>
<path d="M105.812 167L184.812 88" stroke="white"/>
<path d="M105.812 174L184.812 95" stroke="white"/>
<path d="M105.812 181L184.812 102" stroke="white"/>
<path d="M105.812 188L184.812 109" stroke="white"/>
<path d="M105.812 195L184.812 116" stroke="white"/>
<path d="M105.812 202L184.812 123" stroke="white"/>
<path d="M105.812 209L184.812 130" stroke="white"/>
<path d="M105.812 216L184.812 137" stroke="white"/>
<path d="M105.812 223L184.812 144" stroke="white"/>
</g>
</g>
<g opacity="0.2">
<mask id="mask1_426_4597" style="mask-type:alpha" maskUnits="userSpaceOnUse" x="195" y="102" width="81" height="91">
<rect opacity="0.6" width="80" height="91" rx="16" transform="matrix(1 0 0 -1 195.812 193)" fill="white"/>
</mask>
<g mask="url(#mask1_426_4597)">
<path d="M196.812 104L275.812 25" stroke="white"/>
<path d="M196.812 111L275.812 32" stroke="white"/>
<path d="M196.812 118L275.812 39" stroke="white"/>
<path d="M196.812 125L275.812 46" stroke="white"/>
<path d="M196.812 132L275.812 53" stroke="white"/>
<path d="M196.812 139L275.812 60" stroke="white"/>
<path d="M196.812 146L275.812 67" stroke="white"/>
<path d="M196.812 153L275.812 74" stroke="white"/>
<path d="M196.812 160L275.812 81" stroke="white"/>
<path d="M196.812 167L275.812 88" stroke="white"/>
<path d="M196.812 174L275.812 95" stroke="white"/>
<path d="M196.812 181L275.812 102" stroke="white"/>
<path d="M196.812 188L275.812 109" stroke="white"/>
<path d="M196.812 195L275.812 116" stroke="white"/>
<path d="M196.812 202L275.812 123" stroke="white"/>
<path d="M196.812 209L275.812 130" stroke="white"/>
<path d="M196.812 216L275.812 137" stroke="white"/>
<path d="M196.812 223L275.812 144" stroke="white"/>
<path d="M196.812 230L275.812 151" stroke="white"/>
<path d="M196.812 237L275.812 158" stroke="white"/>
<path d="M196.812 244L275.812 165" stroke="white"/>
<path d="M196.812 251L275.812 172" stroke="white"/>
<path d="M196.812 258L275.812 179" stroke="white"/>
<path d="M196.812 265L275.812 186" stroke="white"/>
<path d="M196.812 272L275.812 193" stroke="white"/>
</g>
</g>
<g opacity="0.2">
<mask id="mask2_426_4597" style="mask-type:alpha" maskUnits="userSpaceOnUse" x="14" y="102" width="81" height="91">
<rect opacity="0.6" width="80" height="91" rx="16" transform="matrix(1 0 0 -1 14.8125 193)" fill="white"/>
</mask>
<g mask="url(#mask2_426_4597)">
<path d="M15.8125 104L94.8125 25" stroke="white"/>
<path d="M15.8125 111L94.8125 32" stroke="white"/>
<path d="M15.8125 118L94.8125 39" stroke="white"/>
<path d="M15.8125 125L94.8125 46" stroke="white"/>
<path d="M15.8125 132L94.8125 53" stroke="white"/>
<path d="M15.8125 139L94.8125 60" stroke="white"/>
<path d="M15.8125 146L94.8125 67" stroke="white"/>
<path d="M15.8125 153L94.8125 74" stroke="white"/>
<path d="M15.8125 160L94.8125 81" stroke="white"/>
<path d="M15.8125 167L94.8125 88" stroke="white"/>
<path d="M15.8125 174L94.8125 95" stroke="white"/>
<path d="M15.8125 181L94.8125 102" stroke="white"/>
<path d="M15.8125 188L94.8125 109" stroke="white"/>
<path d="M15.8125 195L94.8125 116" stroke="white"/>
<path d="M15.8125 202L94.8125 123" stroke="white"/>
<path d="M15.8125 209L94.8125 130" stroke="white"/>
<path d="M15.8125 216L94.8125 137" stroke="white"/>
<path d="M15.8125 223L94.8125 144" stroke="white"/>
<path d="M15.8125 230L94.8125 151" stroke="white"/>
<path d="M15.8125 237L94.8125 158" stroke="white"/>
<path d="M15.8125 244L94.8125 165" stroke="white"/>
<path d="M15.8125 251L94.8125 172" stroke="white"/>
<path d="M15.8125 258L94.8125 179" stroke="white"/>
<path d="M15.8125 265L94.8125 186" stroke="white"/>
<path d="M15.8125 272L94.8125 193" stroke="white"/>
</g>
</g>
<g opacity="0.2">
<mask id="mask3_426_4597" style="mask-type:alpha" maskUnits="userSpaceOnUse" x="285" y="102" width="81" height="98">
<rect opacity="0.6" width="80" height="98" rx="16" transform="matrix(1 0 0 -1 285.812 200)" fill="white"/>
</mask>
<g mask="url(#mask3_426_4597)">
<path d="M286.812 117.186L365.812 38.186" stroke="white"/>
<path d="M286.812 124.186L365.812 45.186" stroke="white"/>
<path d="M286.812 131.186L365.812 52.186" stroke="white"/>
<path d="M286.812 138.186L365.812 59.186" stroke="white"/>
<path d="M286.812 145.186L365.812 66.186" stroke="white"/>
<path d="M286.812 152.186L365.812 73.186" stroke="white"/>
<path d="M286.812 159.186L365.812 80.186" stroke="white"/>
<path d="M286.812 166.186L365.812 87.186" stroke="white"/>
<path d="M286.812 173.186L365.812 94.186" stroke="white"/>
<path d="M286.812 180.186L365.812 101.186" stroke="white"/>
<path d="M286.812 187.186L365.812 108.186" stroke="white"/>
<path d="M286.812 194.186L365.812 115.186" stroke="white"/>
<path d="M286.812 201.186L365.812 122.186" stroke="white"/>
<path d="M286.812 208.186L365.812 129.186" stroke="white"/>
<path d="M286.812 215.186L365.812 136.186" stroke="white"/>
<path d="M286.812 222.186L365.812 143.186" stroke="white"/>
<path d="M286.812 229.186L365.812 150.186" stroke="white"/>
<path d="M286.812 236.186L365.812 157.186" stroke="white"/>
<path d="M286.812 243.186L365.812 164.186" stroke="white"/>
<path d="M286.812 250.186L365.812 171.186" stroke="white"/>
<path d="M286.812 257.186L365.812 178.186" stroke="white"/>
<path d="M286.812 264.186L365.812 185.186" stroke="white"/>
<path d="M286.812 271.186L365.812 192.186" stroke="white"/>
<path d="M286.812 278.186L365.812 199.186" stroke="white"/>
</g>
</g>
</g>
<defs>
<clipPath id="clip0_426_4597">
<rect width="340" height="216" fill="white"/>
</clipPath>
</defs>
</svg>
