<svg xmlns:xlink="http://www.w3.org/1999/xlink" xmlns="http://www.w3.org/2000/svg" data-id="svg-Y2ZhLWZyYW5j" class="asset__icon" width="24" height="24"><defs><symbol fill="none" xmlns="http://www.w3.org/2000/svg" viewBox="0 0 32 32" id="cfa-franc">
      <circle cx="16" cy="16" r="12" fill="#33296A"></circle>
      <path d="M10.5281 19.108C10.1021 19.108 9.71807 19.042 9.37607 18.91C9.03407 18.772 8.74307 18.571 8.50307 18.307C8.26307 18.037 8.07707 17.704 7.94507 17.308C7.81307 16.906 7.74707 16.438 7.74707 15.904C7.74707 15.376 7.81307 14.908 7.94507 14.5C8.07707 14.086 8.26307 13.741 8.50307 13.465C8.74307 13.183 9.03407 12.97 9.37607 12.826C9.71807 12.682 10.1021 12.61 10.5281 12.61C11.1101 12.61 11.5901 12.73 11.9681 12.97C12.3461 13.204 12.6491 13.576 12.8771 14.086L11.6981 14.698C11.6141 14.434 11.4821 14.224 11.3021 14.068C11.1281 13.906 10.8701 13.825 10.5281 13.825C10.1261 13.825 9.80207 13.957 9.55607 14.221C9.31607 14.479 9.19607 14.857 9.19607 15.355V16.363C9.19607 16.861 9.31607 17.242 9.55607 17.506C9.80207 17.764 10.1261 17.893 10.5281 17.893C10.8641 17.893 11.1311 17.803 11.3291 17.623C11.5331 17.437 11.6831 17.215 11.7791 16.957L12.8951 17.605C12.6611 18.085 12.3521 18.457 11.9681 18.721C11.5901 18.979 11.1101 19.108 10.5281 19.108Z" fill="#BAACEC"></path>
      <path d="M14.3024 19V12.718H18.4694V13.933H15.6704V15.22H18.0554V16.426H15.6704V19H14.3024Z" fill="#BAACEC"></path>
      <path d="M23.1048 19L22.6548 17.506H20.5578L20.1078 19H18.7218L20.7918 12.718H22.4838L24.5268 19H23.1048ZM21.6198 13.96H21.5748L20.8818 16.345H22.3218L21.6198 13.96Z" fill="#BAACEC"></path>
    </symbol></defs>
        <use xlink:href="#cfa-franc"></use>
      </svg>