<svg xmlns:xlink="http://www.w3.org/1999/xlink" xmlns="http://www.w3.org/2000/svg" data-id="svg-Y2Fk" class="asset__icon" width="24" height="24"><defs><symbol id="cad" viewBox="0 0 32 32" fill="none" xmlns="http://www.w3.org/2000/svg">
      <circle cx="16" cy="16" r="12" fill="#33296A"></circle>
      <path d="M12.7963 20.144C12.2283 20.144 11.7163 20.056 11.2603 19.88C10.8043 19.696 10.4163 19.428 10.0963 19.076C9.77628 18.716 9.52828 18.272 9.35228 17.744C9.17628 17.208 9.08828 16.584 9.08828 15.872C9.08828 15.168 9.17628 14.544 9.35228 14C9.52828 13.448 9.77628 12.988 10.0963 12.62C10.4163 12.244 10.8043 11.96 11.2603 11.768C11.7163 11.576 12.2283 11.48 12.7963 11.48C13.5723 11.48 14.2123 11.64 14.7163 11.96C15.2203 12.272 15.6243 12.768 15.9283 13.448L14.3563 14.264C14.2443 13.912 14.0683 13.632 13.8283 13.424C13.5963 13.208 13.2523 13.1 12.7963 13.1C12.2603 13.1 11.8283 13.276 11.5003 13.628C11.1803 13.972 11.0203 14.476 11.0203 15.14V16.484C11.0203 17.148 11.1803 17.656 11.5003 18.008C11.8283 18.352 12.2603 18.524 12.7963 18.524C13.2443 18.524 13.6003 18.404 13.8643 18.164C14.1363 17.916 14.3363 17.62 14.4643 17.276L15.9523 18.14C15.6403 18.78 15.2283 19.276 14.7163 19.628C14.2123 19.972 13.5723 20.144 12.7963 20.144ZM19.3047 20.984V19.88C18.6967 19.824 18.1847 19.684 17.7687 19.46C17.3527 19.236 16.9927 18.956 16.6887 18.62L17.7687 17.636C18.0007 17.876 18.2567 18.076 18.5367 18.236C18.8167 18.388 19.1247 18.488 19.4607 18.536V16.376C18.5567 16.192 17.9087 15.904 17.5167 15.512C17.1247 15.12 16.9287 14.632 16.9287 14.048C16.9287 13.416 17.1287 12.9 17.5287 12.5C17.9367 12.1 18.5287 11.856 19.3047 11.768V10.64H20.6727V11.768C21.1527 11.824 21.5727 11.944 21.9327 12.128C22.2927 12.304 22.6047 12.544 22.8687 12.848L21.7767 13.832C21.6327 13.672 21.4607 13.528 21.2607 13.4C21.0607 13.272 20.8167 13.176 20.5287 13.112V15.104C21.3767 15.296 22.0007 15.572 22.4007 15.932C22.8087 16.292 23.0127 16.78 23.0127 17.396C23.0127 17.988 22.8207 18.508 22.4367 18.956C22.0607 19.404 21.4727 19.696 20.6727 19.832V20.984H19.3047ZM18.5847 14C18.5847 14.232 18.6527 14.412 18.7887 14.54C18.9327 14.668 19.1567 14.776 19.4607 14.864V13.088C19.1567 13.152 18.9327 13.264 18.7887 13.424C18.6527 13.576 18.5847 13.768 18.5847 14ZM21.3567 17.528C21.3567 17.352 21.3047 17.184 21.2007 17.024C21.0967 16.856 20.8727 16.72 20.5287 16.616V18.512C20.8087 18.432 21.0167 18.308 21.1527 18.14C21.2887 17.964 21.3567 17.76 21.3567 17.528Z" fill="#BAACEC"></path>
    </symbol></defs>
        <use xlink:href="#cad"></use>
      </svg>