<svg xmlns:xlink="http://www.w3.org/1999/xlink" xmlns="http://www.w3.org/2000/svg" data-id="svg-ZXVy" class="asset__icon" width="24" height="24"><defs><symbol id="eur" viewBox="0 0 32 32" fill="none" xmlns="http://www.w3.org/2000/svg">
      <g clip-path="url(#clip0_1204_910)">
      <path d="M16 4C9.37321 4 4 9.37321 4 16C4 22.6268 9.37321 28 16 28C22.6268 28 28 22.6268 28 16C28 9.37321 22.6268 4 16 4Z" fill="#33296A"></path>
      <path d="M17.9151 14.2805C17.9151 14.1626 17.8187 14.0662 17.7008 14.0662H14.2615C14.7223 12.5421 15.9276 11.6448 17.6794 11.6448C18.2124 11.6448 18.6705 11.685 19.0642 11.7626C19.1981 11.7894 19.3214 11.6903 19.3214 11.5537H19.3187V10.4073C19.3187 10.3055 19.249 10.2198 19.1499 10.1984C18.724 10.1046 18.2285 10.0537 17.6687 10.0537C14.8133 10.0537 12.8767 11.5457 12.349 14.0689H11.4999C11.3821 14.0689 11.2856 14.1653 11.2856 14.2832V15.0117C11.2856 15.1296 11.3821 15.226 11.4999 15.226H12.2071C12.199 15.3332 12.199 15.451 12.199 15.5689V16.5573H11.4999C11.3821 16.5573 11.2856 16.6537 11.2856 16.7716V17.5001C11.2856 17.618 11.3821 17.7144 11.4999 17.7144H12.3062C12.7669 20.3716 14.7276 21.9466 17.6687 21.9466C18.2312 21.9466 18.724 21.901 19.1499 21.81C19.249 21.7885 19.3214 21.7028 19.3214 21.601V20.4546C19.3214 20.3207 19.1981 20.2189 19.0669 20.2457C18.6731 20.3234 18.2124 20.3555 17.6794 20.3555C15.8446 20.3555 14.6124 19.3751 14.2026 17.7144H17.6981C17.816 17.7144 17.9124 17.618 17.9124 17.5001V16.7716C17.9124 16.6537 17.816 16.5573 17.6981 16.5573H14.0499V15.593C14.0499 15.4671 14.0499 15.3412 14.058 15.2234H17.7008C17.8187 15.2234 17.9151 15.1269 17.9151 15.0091V14.2805Z" fill="#BAACEC"></path>
      </g>
      <defs>
      <clipPath id="clip0_1204_910">
      <rect width="24" height="24" fill="white" transform="translate(4 4)"></rect>
      </clipPath>
      </defs>
    </symbol></defs>
        <use xlink:href="#eur"></use>
      </svg>