<svg xmlns:xlink="http://www.w3.org/1999/xlink" xmlns="http://www.w3.org/2000/svg" data-id="svg-eGxt" class="asset__icon" width="24" height="24"><defs><symbol viewBox="0 0 32 32" fill="none" xmlns="http://www.w3.org/2000/svg" id="xlm">
      <circle cx="16" cy="16" r="12" fill="#33296A"></circle>
      <path fill-rule="evenodd" clip-rule="evenodd" d="M19.4685 12.4404L21.1755 11.5704L23.1764 10.5491V11.7744L21.1581 12.8035L20.1817 13.3009L11.4921 17.7305L11.0081 17.9772L10.5168 18.228L9 19.0015V17.7755L9.51521 17.5127C9.70697 17.415 9.86555 17.2626 9.97099 17.0749C10.0764 16.8872 10.124 16.6725 10.1078 16.4578C10.0962 16.3062 10.0904 16.154 10.0904 16.0012C10.0903 14.8947 10.3959 13.8098 10.9736 12.8663C11.5513 11.9228 12.3784 11.1574 13.3637 10.6548C14.3489 10.1522 15.4539 9.93193 16.5565 10.0183C17.659 10.1047 18.7162 10.4944 19.6113 11.1443L19.4655 11.2187L18.4885 11.7168C17.7416 11.2995 16.8987 11.0846 16.0433 11.0935C15.1879 11.1023 14.3496 11.3346 13.6115 11.7673C12.8734 12.2001 12.2612 12.8182 11.8353 13.5605C11.4095 14.3028 11.1849 15.1435 11.1838 15.9994C11.1839 16.2139 11.1979 16.4282 11.2258 16.6408L19.4685 12.4404ZM11.9857 18.7016L23.1764 13.0011V14.2228L22.6605 14.4857C22.4689 14.5836 22.3105 14.7359 22.2052 14.9236C22.0999 15.1113 22.0523 15.3259 22.0686 15.5405C22.08 15.693 22.086 15.8472 22.086 16.0014C22.0856 17.1077 21.7796 18.1923 21.2016 19.1355C20.6237 20.0787 19.7964 20.8437 18.8112 21.3459C17.8259 21.8482 16.7211 22.0682 15.6187 21.9816C14.5163 21.895 13.4593 21.5052 12.5645 20.8552L13.6237 20.3152L13.6837 20.2834C14.4307 20.7024 15.2743 20.9187 16.1307 20.9108C16.9872 20.9028 17.8266 20.6709 18.5658 20.2381C19.3049 19.8052 19.918 19.1865 20.3443 18.4433C20.7705 17.7001 20.995 16.8582 20.9956 16.0014C20.9955 15.7855 20.9815 15.5698 20.9536 15.3557L12.7024 19.5621L10.9955 20.4322L9 21.4493V20.2246L11.0093 19.2003L11.9857 18.7016Z" fill="#BAACEC"></path>
    </symbol></defs>
        <use xlink:href="#xlm"></use>
      </svg>