<svg xmlns:xlink="http://www.w3.org/1999/xlink" xmlns="http://www.w3.org/2000/svg" data-id="svg-c2dk" class="asset__icon" width="24" height="24"><defs><symbol id="sgd" viewBox="0 0 32 32" fill="none" xmlns="http://www.w3.org/2000/svg">
      <circle cx="16" cy="16" r="12" fill="#33296A"></circle>
      <path d="M12.2883 20.144C11.5523 20.144 10.9283 20.02 10.4163 19.772C9.90434 19.516 9.46834 19.188 9.10834 18.788L10.3083 17.576C10.8763 18.216 11.5763 18.536 12.4083 18.536C12.8563 18.536 13.1883 18.444 13.4043 18.26C13.6203 18.076 13.7283 17.832 13.7283 17.528C13.7283 17.296 13.6643 17.104 13.5363 16.952C13.4083 16.792 13.1483 16.684 12.7563 16.628L11.9283 16.52C11.0403 16.408 10.3883 16.14 9.97234 15.716C9.56434 15.292 9.36034 14.728 9.36034 14.024C9.36034 13.648 9.43234 13.304 9.57634 12.992C9.72034 12.68 9.92434 12.412 10.1883 12.188C10.4603 11.964 10.7883 11.792 11.1723 11.672C11.5643 11.544 12.0083 11.48 12.5043 11.48C13.1363 11.48 13.6923 11.58 14.1723 11.78C14.6523 11.98 15.0643 12.272 15.4083 12.656L14.1963 13.88C13.9963 13.648 13.7523 13.46 13.4643 13.316C13.1843 13.164 12.8283 13.088 12.3963 13.088C11.9883 13.088 11.6843 13.16 11.4843 13.304C11.2843 13.448 11.1843 13.648 11.1843 13.904C11.1843 14.192 11.2603 14.4 11.4123 14.528C11.5723 14.656 11.8283 14.748 12.1803 14.804L13.0083 14.936C13.8723 15.072 14.5123 15.34 14.9283 15.74C15.3443 16.132 15.5523 16.692 15.5523 17.42C15.5523 17.82 15.4803 18.188 15.3363 18.524C15.1923 18.86 14.9803 19.148 14.7003 19.388C14.4283 19.628 14.0883 19.816 13.6803 19.952C13.2723 20.08 12.8083 20.144 12.2883 20.144ZM19.1406 20.984V19.88C18.5326 19.824 18.0206 19.684 17.6046 19.46C17.1886 19.236 16.8286 18.956 16.5246 18.62L17.6046 17.636C17.8366 17.876 18.0926 18.076 18.3726 18.236C18.6526 18.388 18.9606 18.488 19.2966 18.536V16.376C18.3926 16.192 17.7446 15.904 17.3526 15.512C16.9606 15.12 16.7646 14.632 16.7646 14.048C16.7646 13.416 16.9646 12.9 17.3646 12.5C17.7726 12.1 18.3646 11.856 19.1406 11.768V10.64H20.5086V11.768C20.9886 11.824 21.4086 11.944 21.7686 12.128C22.1286 12.304 22.4406 12.544 22.7046 12.848L21.6126 13.832C21.4686 13.672 21.2966 13.528 21.0966 13.4C20.8966 13.272 20.6526 13.176 20.3646 13.112V15.104C21.2126 15.296 21.8366 15.572 22.2366 15.932C22.6446 16.292 22.8486 16.78 22.8486 17.396C22.8486 17.988 22.6566 18.508 22.2726 18.956C21.8966 19.404 21.3086 19.696 20.5086 19.832V20.984H19.1406ZM18.4206 14C18.4206 14.232 18.4886 14.412 18.6246 14.54C18.7686 14.668 18.9926 14.776 19.2966 14.864V13.088C18.9926 13.152 18.7686 13.264 18.6246 13.424C18.4886 13.576 18.4206 13.768 18.4206 14ZM21.1926 17.528C21.1926 17.352 21.1406 17.184 21.0366 17.024C20.9326 16.856 20.7086 16.72 20.3646 16.616V18.512C20.6446 18.432 20.8526 18.308 20.9886 18.14C21.1246 17.964 21.1926 17.76 21.1926 17.528Z" fill="#BAACEC"></path>
    </symbol></defs>
        <use xlink:href="#sgd"></use>
      </svg>