<svg xmlns:xlink="http://www.w3.org/1999/xlink" xmlns="http://www.w3.org/2000/svg" data-id="svg-a2VueWFuLXNoaWxsaW5n" class="asset__icon" width="24" height="24"><defs><symbol fill="none" xmlns="http://www.w3.org/2000/svg" viewBox="0 0 32 32" id="kenyan-shilling">
      <circle cx="16" cy="16" r="12" fill="#33296A"></circle>
      <path d="M10.4491 16.568L9.72107 17.448V19H8.50507V13.416H9.72107V16.072H9.76907L10.5611 14.992L11.8171 13.416H13.1931L11.3131 15.712L13.3611 19H11.9291L10.4491 16.568Z" fill="#BAACEC"></path>
      <path d="M14.4754 19V13.416H18.2754V14.496H15.6914V15.64H17.9074V16.712H15.6914V17.92H18.2754V19H14.4754Z" fill="#BAACEC"></path>
      <path d="M21.5428 19.096C21.0521 19.096 20.6361 19.0133 20.2948 18.848C19.9534 18.6773 19.6628 18.4587 19.4228 18.192L20.2228 17.384C20.6014 17.8107 21.0681 18.024 21.6228 18.024C21.9214 18.024 22.1428 17.9627 22.2868 17.84C22.4308 17.7173 22.5028 17.5547 22.5028 17.352C22.5028 17.1973 22.4601 17.0693 22.3748 16.968C22.2894 16.8613 22.1161 16.7893 21.8548 16.752L21.3028 16.68C20.7108 16.6053 20.2761 16.4267 19.9988 16.144C19.7268 15.8613 19.5908 15.4853 19.5908 15.016C19.5908 14.7653 19.6388 14.536 19.7348 14.328C19.8308 14.12 19.9668 13.9413 20.1428 13.792C20.3241 13.6427 20.5428 13.528 20.7988 13.448C21.0601 13.3627 21.3561 13.32 21.6868 13.32C22.1081 13.32 22.4788 13.3867 22.7988 13.52C23.1188 13.6533 23.3934 13.848 23.6228 14.104L22.8148 14.92C22.6814 14.7653 22.5188 14.64 22.3268 14.544C22.1401 14.4427 21.9028 14.392 21.6148 14.392C21.3428 14.392 21.1401 14.44 21.0068 14.536C20.8734 14.632 20.8068 14.7653 20.8068 14.936C20.8068 15.128 20.8574 15.2667 20.9588 15.352C21.0654 15.4373 21.2361 15.4987 21.4708 15.536L22.0228 15.624C22.5988 15.7147 23.0254 15.8933 23.3028 16.16C23.5801 16.4213 23.7188 16.7947 23.7188 17.28C23.7188 17.5467 23.6708 17.792 23.5748 18.016C23.4788 18.24 23.3374 18.432 23.1508 18.592C22.9694 18.752 22.7428 18.8773 22.4708 18.968C22.1988 19.0533 21.8894 19.096 21.5428 19.096Z" fill="#BAACEC"></path>
    </symbol></defs>
        <use xlink:href="#kenyan-shilling"></use>
      </svg>