<svg xmlns:xlink="http://www.w3.org/1999/xlink" xmlns="http://www.w3.org/2000/svg" data-id="svg-bXhu" class="asset__icon" width="24" height="24"><defs><symbol id="mxn" viewBox="0 0 32 32" fill="none" xmlns="http://www.w3.org/2000/svg">
      <circle cx="16" cy="16" r="12" fill="#33296A"></circle>
      <path d="M10.3356 15.254H10.3146L9.95758 15.968L9.00558 17.697L8.07458 15.975L7.70358 15.205H7.68258V18.46H6.68158V13.574H7.80858L9.00558 15.863H9.01958L10.2026 13.574H11.3366V18.46H10.3356V15.254Z" fill="#BAACEC"></path>
      <path d="M16.4769 18.46H15.2449L14.1879 16.661H14.1669L13.1379 18.46H11.9899L13.5579 15.933L12.0669 13.574H13.3059L14.2579 15.226H14.2789L15.2449 13.574H16.3929L14.8879 15.954L16.4769 18.46Z" fill="#BAACEC"></path>
      <path d="M18.6179 16.15L18.1489 15.17H18.1279V18.46H17.1269V13.574H18.2889L19.6259 15.884L20.0949 16.864H20.1159V13.574H21.1169V18.46H19.9549L18.6179 16.15Z" fill="#BAACEC"></path>
      <path d="M23.4033 19.034V18.39C23.0487 18.3573 22.75 18.2757 22.5073 18.145C22.2647 18.0143 22.0547 17.851 21.8773 17.655L22.5073 17.081C22.6427 17.221 22.792 17.3377 22.9553 17.431C23.1187 17.5197 23.2983 17.578 23.4943 17.606V16.346C22.967 16.2387 22.589 16.0707 22.3603 15.842C22.1317 15.6133 22.0173 15.3287 22.0173 14.988C22.0173 14.6193 22.134 14.3183 22.3673 14.085C22.6053 13.8517 22.9507 13.7093 23.4033 13.658V13H24.2013V13.658C24.4813 13.6907 24.7263 13.7607 24.9363 13.868C25.1463 13.9707 25.3283 14.1107 25.4823 14.288L24.8453 14.862C24.7613 14.7687 24.661 14.6847 24.5443 14.61C24.4277 14.5353 24.2853 14.4793 24.1173 14.442V15.604C24.612 15.716 24.976 15.877 25.2093 16.087C25.4473 16.297 25.5663 16.5817 25.5663 16.941C25.5663 17.2863 25.4543 17.5897 25.2303 17.851C25.011 18.1123 24.668 18.2827 24.2013 18.362V19.034H23.4033ZM22.9833 14.96C22.9833 15.0953 23.023 15.2003 23.1023 15.275C23.1863 15.3497 23.317 15.4127 23.4943 15.464V14.428C23.317 14.4653 23.1863 14.5307 23.1023 14.624C23.023 14.7127 22.9833 14.8247 22.9833 14.96ZM24.6003 17.018C24.6003 16.9153 24.57 16.8173 24.5093 16.724C24.4487 16.626 24.318 16.5467 24.1173 16.486V17.592C24.2807 17.5453 24.402 17.473 24.4813 17.375C24.5607 17.2723 24.6003 17.1533 24.6003 17.018Z" fill="#BAACEC"></path>
    </symbol></defs>
        <use xlink:href="#mxn"></use>
      </svg>