<svg xmlns:xlink="http://www.w3.org/1999/xlink" xmlns="http://www.w3.org/2000/svg" data-id="svg-cGhw" class="asset__icon" width="24" height="24"><defs><symbol id="php" viewBox="0 0 32 32" fill="none" xmlns="http://www.w3.org/2000/svg">
      <circle cx="16" cy="16" r="12" fill="#33296A"></circle>
      <path d="M14.9805 22H12.47V16.6533H11V15.2779H12.47V14.1089H11V12.7335H12.47V10H17.1276C17.9645 10 18.6582 10.212 19.2087 10.6361C19.7703 11.0487 20.1557 11.7479 20.3649 12.7335H22V14.1089H20.5135C20.5245 14.2006 20.53 14.2923 20.53 14.384C20.53 14.4642 20.53 14.5501 20.53 14.6418C20.53 14.7564 20.53 14.8653 20.53 14.9685C20.53 15.0716 20.5245 15.1748 20.5135 15.2779H22V16.6533H20.3153C20.0951 17.5817 19.7097 18.2751 19.1592 18.7335C18.6196 19.1805 17.9369 19.404 17.1111 19.404H14.9805V22ZM14.9805 12.8367H17.9865C17.9314 12.5043 17.7993 12.2407 17.5901 12.0458C17.3919 11.851 17.1331 11.7536 16.8138 11.7536H14.9805V12.8367ZM18.0195 15.3467V14.0401H14.9805V15.3467H18.0195ZM16.8138 17.6848C17.1331 17.6848 17.3919 17.5874 17.5901 17.3926C17.7993 17.1862 17.9314 16.9054 17.9865 16.5501H14.9805V17.6848H16.8138Z" fill="#BAACEC"></path>
    </symbol></defs>
        <use xlink:href="#php"></use>
      </svg>