<svg xmlns:xlink="http://www.w3.org/1999/xlink" xmlns="http://www.w3.org/2000/svg" data-id="svg-a3J3" class="asset__icon" width="24" height="24"><defs><symbol id="krw" viewBox="0 0 32 32" fill="none" xmlns="http://www.w3.org/2000/svg">
      <circle cx="16" cy="16" r="12" fill="#33296A"></circle>
      <path d="M10.62 16.0009C10.5289 15.6516 10.4445 15.3277 10.3584 14.9975C10.0255 14.9975 9.70264 14.9975 9.37956 14.9975C9.06058 14.9975 9.00045 14.9363 9.00045 14.6118C9.00045 14.5025 8.99881 14.3932 9.00181 14.2838C9.00646 14.0961 9.0901 14.0056 9.27733 14.002C9.54548 13.9966 9.81362 14.0007 10.1009 14.0007C10.0279 13.7156 9.9593 13.4441 9.88933 13.173C9.73326 12.57 9.57609 11.9676 9.42056 11.3649C9.35933 11.1282 9.455 11.0027 9.698 11.0014C10.0214 10.9997 10.345 10.9997 10.6683 11.0005C10.8673 11.0011 10.9244 11.0448 10.9734 11.2389C11.1915 12.1075 11.4107 12.9757 11.6225 13.846C11.6515 13.9649 11.6966 14.0037 11.821 14.0028C12.659 13.9974 13.4973 13.9993 14.3354 14.0028C14.4316 14.0031 14.4759 13.9802 14.5027 13.8779C14.7317 13.0076 14.9687 12.1393 15.2032 11.2703C15.2634 11.047 15.3194 11.0019 15.5443 11.0016C15.8313 11.0011 16.1183 11.0003 16.4054 11.0016C16.5888 11.0025 16.6585 11.0549 16.7071 11.2337C16.9455 12.1062 17.1841 12.9784 17.4172 13.8522C17.4459 13.9599 17.482 14.0061 17.605 14.005C18.4614 13.9979 19.3177 13.9985 20.1741 14.0023C20.2807 14.0028 20.3206 13.969 20.3466 13.8662C20.5619 13.0112 20.7839 12.1578 21.0037 11.3037C21.0747 11.0276 21.1092 11.0005 21.3978 11.0003C21.6938 11.0003 21.9898 11.0003 22.2861 11.0011C22.5469 11.0019 22.6387 11.1244 22.5715 11.3783C22.3504 12.2131 22.1292 13.0481 21.9084 13.8829C21.9005 13.9132 21.8964 13.9444 21.8873 13.9903C21.9294 13.9941 21.9677 14.0007 22.0057 14.0007C22.2471 14.0015 22.4887 13.9971 22.73 14.002C22.9022 14.0056 22.9889 14.0944 22.9946 14.2663C22.9998 14.4164 22.9993 14.567 22.9957 14.7173C22.9913 14.9035 22.9014 14.9948 22.7161 14.9964C22.3927 14.9994 22.0691 15.0008 21.746 14.9948C21.6479 14.9929 21.6014 15.0199 21.5779 15.1194C21.5151 15.3846 21.4407 15.6472 21.3718 15.911C21.3653 15.9361 21.3645 15.9629 21.3593 16.0012C21.708 16.0012 22.0489 16.0012 22.39 16.0012C22.5084 16.0012 22.627 15.9982 22.7453 16.0031C22.897 16.0094 22.9853 16.0892 22.993 16.2398C23.0017 16.4126 23.0028 16.5861 22.9933 16.7589C22.9842 16.9204 22.888 16.9934 22.7022 16.9939C22.2102 16.9953 21.7182 16.9986 21.2264 16.9915C21.1122 16.9898 21.0728 17.0276 21.0447 17.1347C20.642 18.6596 20.2342 20.1835 19.828 21.7076C19.7619 21.9561 19.7141 21.9951 19.4601 21.9951C19.1094 21.9951 18.7588 21.9951 18.4078 21.9951C18.17 21.9951 18.1131 21.9531 18.0522 21.7256C17.6958 20.4002 17.3396 19.0748 16.9835 17.7494C16.9258 17.5343 16.8654 17.32 16.8115 17.1038C16.7924 17.0267 16.7615 16.9926 16.6746 16.9934C16.2009 16.9978 15.7272 16.998 15.2535 16.9934C15.1663 16.9926 15.1395 17.0246 15.1179 17.1041C14.7041 18.6402 14.2867 20.1753 13.8704 21.7106C13.8029 21.9593 13.7578 21.9943 13.5001 21.9938C13.1401 21.9932 12.7804 21.9946 12.4204 21.9932C12.2277 21.9924 12.1621 21.9405 12.1135 21.7535C11.7136 20.2185 11.3129 18.6837 10.9179 17.1473C10.8873 17.0284 10.8435 16.9893 10.7189 16.9915C10.2499 16.9994 9.78054 16.9956 9.3115 16.9937C9.07944 16.9929 9.00263 16.9128 9.00127 16.6788C9.00072 16.5558 9.00072 16.4328 9.00209 16.3098C9.00455 16.0854 9.08354 16.0031 9.30521 16.002C9.68788 16.0001 10.0706 16.0012 10.4529 16.0012C10.5027 16.0012 10.5522 16.0012 10.6205 16.0012L10.62 16.0009ZM17.7335 15.0027C17.819 15.3236 17.9002 15.6344 17.9877 15.9435C17.9948 15.9689 18.0459 15.9982 18.0765 15.9985C18.6221 16.0015 19.1677 16.0012 19.7135 15.9976C19.7447 15.9976 19.7963 15.9687 19.8032 15.9435C19.8887 15.6341 19.9677 15.3225 20.0505 15.0027H17.7332H17.7335ZM11.915 15.0016C11.9951 15.3225 12.0716 15.6349 12.1539 15.9457C12.1602 15.9689 12.2064 15.9968 12.2343 15.9971C12.7714 16.0006 13.3087 16.0015 13.8458 15.9974C13.8781 15.9974 13.9303 15.9583 13.9393 15.9274C14.0271 15.6226 14.1077 15.3154 14.1924 15.0013H11.9153L11.915 15.0016ZM18.9028 19.3312C18.9113 19.3329 18.9198 19.3348 18.9282 19.3364C19.1294 18.5615 19.3309 17.7866 19.5337 17.0057H18.2741C18.4862 17.7902 18.6945 18.5607 18.9028 19.331V19.3312ZM13.0015 19.381C13.2232 18.5629 13.4339 17.7858 13.6452 17.0062H12.4084C12.6052 17.7945 12.7984 18.5678 13.0015 19.381ZM16.5002 15.9933C16.448 15.7943 16.211 15.0229 16.211 15.0229L15.6873 15.0202C15.602 15.3293 15.5074 15.6748 15.4238 15.9933H16.5002Z" fill="#BAACEC"></path>
    </symbol></defs>
        <use xlink:href="#krw"></use>
      </svg>