<svg xmlns:xlink="http://www.w3.org/1999/xlink" xmlns="http://www.w3.org/2000/svg" data-id="svg-Yml0Y29pbg==" class="asset__icon" width="24" height="24"><defs><symbol fill="none" xmlns="http://www.w3.org/2000/svg" viewBox="0 0 32 32" id="bitcoin">
      <path fill-rule="evenodd" clip-rule="evenodd" d="M16 28C9.37225 28 4 22.6277 4 16C4 9.37225 9.37225 4 16 4C22.6277 4 28 9.37225 28 16C28 22.6277 22.6277 28 16 28Z" fill="#33296A"></path>
      <path fill-rule="evenodd" clip-rule="evenodd" d="M21.3917 14.515C21.6272 12.943 20.4294 12.0977 18.7929 11.5338L19.3239 9.40375L18.0279 9.08125L17.5104 11.155C17.177 11.0713 16.8349 10.9933 16.4934 10.9155L16.4934 10.9155L16.4717 10.9105L16.9929 8.82325L15.6969 8.5L15.1659 10.6292C15.147 10.6249 15.1281 10.6206 15.1092 10.6163C14.8467 10.5563 14.5884 10.4972 14.3379 10.4343L14.3394 10.4275L12.5514 9.98125L12.2064 11.3658C12.2064 11.3658 13.1687 11.5863 13.1484 11.5998C13.6734 11.731 13.7679 12.0782 13.7522 12.3542L13.1477 14.7805C13.1837 14.7895 13.2302 14.803 13.2827 14.8232L13.1454 14.7895L12.2979 18.1885C12.2334 18.3475 12.0707 18.5867 11.7032 18.496C11.7167 18.5147 10.7612 18.2612 10.7612 18.2612L10.1177 19.7448L11.8052 20.1655C11.9864 20.211 12.1656 20.2578 12.343 20.3041C12.4724 20.3379 12.6009 20.3714 12.7284 20.404L12.1922 22.558L13.4874 22.8805L14.0184 20.7505C14.3724 20.8457 14.7159 20.9342 15.0519 21.0182L14.5224 23.1392L15.8184 23.4618L16.3547 21.3123C18.5657 21.7308 20.2277 21.562 20.9274 19.5625C21.4914 17.953 20.8997 17.0238 19.7364 16.4185C20.5839 16.2235 21.2214 15.6663 21.3917 14.515ZM15.6912 15.0848L15.6912 15.0847C15.6108 15.0633 15.539 15.0441 15.478 15.0289L16.123 12.4414C16.197 12.4599 16.2878 12.4799 16.3907 12.5027C17.3037 12.7047 19.1729 13.1182 18.8305 14.4912C18.4957 15.8335 16.573 15.3202 15.6912 15.0848ZM14.6924 19.2549C14.597 19.2297 14.5119 19.2072 14.4392 19.1892L15.1517 16.3354C15.2403 16.3576 15.3487 16.3819 15.4714 16.4095C16.566 16.6554 18.8062 17.1586 18.4292 18.6679C18.0625 20.1451 15.7506 19.5344 14.6924 19.2549Z" fill="#BAACEC"></path>
    </symbol></defs>
        <use xlink:href="#bitcoin"></use>
      </svg>