<svg xmlns:xlink="http://www.w3.org/1999/xlink" xmlns="http://www.w3.org/2000/svg" data-id="svg-cmF3YW5kYW4tZnJhbmM=" class="asset__icon" width="24" height="24"><defs><symbol fill="none" xmlns="http://www.w3.org/2000/svg" viewBox="0 0 32 32" id="rawandan-franc">
      <circle cx="16" cy="16" r="12" fill="#33296A"></circle>
      <path d="M8.56091 19H7.34491V13.416H9.99291C10.2489 13.416 10.4809 13.4587 10.6889 13.544C10.8969 13.6293 11.0729 13.752 11.2169 13.912C11.3662 14.0667 11.4809 14.2533 11.5609 14.472C11.6409 14.6907 11.6809 14.9333 11.6809 15.2C11.6809 15.5787 11.5956 15.9093 11.4249 16.192C11.2596 16.4747 11.0062 16.68 10.6649 16.808L11.7609 19H10.4089L9.43291 16.952H8.56091V19ZM9.84091 15.928C10.0222 15.928 10.1636 15.8827 10.2649 15.792C10.3716 15.696 10.4249 15.5573 10.4249 15.376V15.024C10.4249 14.8427 10.3716 14.7067 10.2649 14.616C10.1636 14.52 10.0222 14.472 9.84091 14.472H8.56091V15.928H9.84091Z" fill="#BAACEC"></path>
      <path d="M13.9062 19L12.6422 13.416H13.8422L14.3702 16.096L14.6662 17.648H14.6902L15.0422 16.096L15.6582 13.416H16.9862L17.6102 16.096L17.9542 17.648H17.9782L18.2742 16.096L18.8102 13.416H19.9622L18.6662 19H17.2822L16.5782 15.976L16.3062 14.752H16.2822L16.0022 15.976L15.2982 19H13.9062Z" fill="#BAACEC"></path>
      <path d="M21.2074 19V13.416H24.9114V14.496H22.4234V15.64H24.5434V16.712H22.4234V19H21.2074Z" fill="#BAACEC"></path>
    </symbol></defs>
        <use xlink:href="#rawandan-franc"></use>
      </svg>