<svg xmlns:xlink="http://www.w3.org/1999/xlink" xmlns="http://www.w3.org/2000/svg" data-id="svg-cGVydS1zb2w=" class="asset__icon" width="24" height="24"><defs><symbol fill="none" xmlns="http://www.w3.org/2000/svg" viewBox="0 0 32 32" id="peru-sol">
      <circle cx="16" cy="16" r="12" fill="#33296A"></circle>
      <path d="M14.343 20.144C13.607 20.144 12.983 20.02 12.471 19.772C11.959 19.516 11.523 19.188 11.163 18.788L12.363 17.576C12.931 18.216 13.631 18.536 14.463 18.536C14.911 18.536 15.243 18.444 15.459 18.26C15.675 18.076 15.783 17.832 15.783 17.528C15.783 17.296 15.719 17.104 15.591 16.952C15.463 16.792 15.203 16.684 14.811 16.628L13.983 16.52C13.095 16.408 12.443 16.14 12.027 15.716C11.619 15.292 11.415 14.728 11.415 14.024C11.415 13.648 11.487 13.304 11.631 12.992C11.775 12.68 11.979 12.412 12.243 12.188C12.515 11.964 12.843 11.792 13.227 11.672C13.619 11.544 14.063 11.48 14.559 11.48C15.191 11.48 15.747 11.58 16.227 11.78C16.707 11.98 17.119 12.272 17.463 12.656L16.251 13.88C16.051 13.648 15.807 13.46 15.519 13.316C15.239 13.164 14.883 13.088 14.451 13.088C14.043 13.088 13.739 13.16 13.539 13.304C13.339 13.448 13.239 13.648 13.239 13.904C13.239 14.192 13.315 14.4 13.467 14.528C13.627 14.656 13.883 14.748 14.235 14.804L15.063 14.936C15.927 15.072 16.567 15.34 16.983 15.74C17.399 16.132 17.607 16.692 17.607 17.42C17.607 17.82 17.535 18.188 17.391 18.524C17.247 18.86 17.035 19.148 16.755 19.388C16.483 19.628 16.143 19.816 15.735 19.952C15.327 20.08 14.863 20.144 14.343 20.144Z" fill="#BAACEC"></path>
      <path d="M17.8094 21.812L21.3854 11.12H22.8494L19.2734 21.812H17.8094Z" fill="#BAACEC"></path>
    </symbol></defs>
        <use xlink:href="#peru-sol"></use>
      </svg>