<svg xmlns:xlink="http://www.w3.org/1999/xlink" xmlns="http://www.w3.org/2000/svg" data-id="svg-Z2Jw" class="asset__icon" width="24" height="24"><defs><symbol id="gbp" viewBox="0 0 32 32" fill="none" xmlns="http://www.w3.org/2000/svg">
      <circle cx="16" cy="16" r="12" fill="#33296A"></circle>
      <path d="M12.8498 21V19.096C13.2044 18.9373 13.4844 18.7133 13.6898 18.424C13.9044 18.1347 14.0118 17.7893 14.0118 17.388C14.0118 17.22 13.9931 17.066 13.9558 16.926H12.4018V15.246H13.3258C13.2511 15.05 13.1904 14.8447 13.1438 14.63C13.0971 14.406 13.0738 14.1727 13.0738 13.93C13.0738 13.5007 13.1531 13.1087 13.3118 12.754C13.4798 12.3993 13.7178 12.096 14.0258 11.844C14.3338 11.592 14.7024 11.4007 15.1318 11.27C15.5611 11.13 16.0418 11.06 16.5738 11.06C17.3298 11.06 17.9738 11.2047 18.5058 11.494C19.0471 11.774 19.5044 12.194 19.8778 12.754L18.3378 13.832C18.0764 13.496 17.8104 13.258 17.5398 13.118C17.2691 12.9687 16.9658 12.894 16.6298 12.894C16.1724 12.894 15.8224 13.0153 15.5798 13.258C15.3371 13.4913 15.2158 13.8273 15.2158 14.266C15.2158 14.4527 15.2344 14.6253 15.2718 14.784C15.3091 14.9333 15.3558 15.0873 15.4118 15.246H18.1558V16.926H16.0558C16.0651 16.9913 16.0698 17.0567 16.0698 17.122C16.0791 17.178 16.0838 17.2433 16.0838 17.318C16.0838 17.5607 16.0511 17.78 15.9858 17.976C15.9204 18.1627 15.8318 18.3307 15.7198 18.48C15.6171 18.62 15.5004 18.7413 15.3698 18.844C15.2484 18.9373 15.1271 19.0167 15.0058 19.082V19.208H19.6818V21H12.8498Z" fill="#BAACEC"></path>
    </symbol></defs>
        <use xlink:href="#gbp"></use>
      </svg>