<svg xmlns:xlink="http://www.w3.org/1999/xlink" xmlns="http://www.w3.org/2000/svg" data-id="svg-YXJz" class="asset__icon" width="24" height="24"><defs><symbol id="ars" viewBox="0 0 32 32" fill="none" xmlns="http://www.w3.org/2000/svg">
      <circle cx="16" cy="16" r="12" fill="#33296A"></circle>
      <path d="M12.1263 18.68L11.7263 17.352H9.86229L9.46229 18.68H8.23029L10.0703 13.096H11.5743L13.3903 18.68H12.1263ZM10.8063 14.2H10.7663L10.1503 16.32H11.4303L10.8063 14.2Z" fill="#BAACEC"></path>
      <path d="M15.3788 18.68H14.1628V13.096H16.8108C17.0668 13.096 17.2988 13.1387 17.5068 13.224C17.7148 13.3093 17.8908 13.432 18.0348 13.592C18.1842 13.7467 18.2988 13.9333 18.3788 14.152C18.4588 14.3707 18.4988 14.6133 18.4988 14.88C18.4988 15.2587 18.4135 15.5893 18.2428 15.872C18.0775 16.1547 17.8242 16.36 17.4828 16.488L18.5788 18.68H17.2268L16.2508 16.632H15.3788V18.68ZM16.6588 15.608C16.8402 15.608 16.9815 15.5627 17.0828 15.472C17.1895 15.376 17.2428 15.2373 17.2428 15.056V14.704C17.2428 14.5227 17.1895 14.3867 17.0828 14.296C16.9815 14.2 16.8402 14.152 16.6588 14.152H15.3788V15.608H16.6588Z" fill="#BAACEC"></path>
      <path d="M21.3615 18.776C20.8708 18.776 20.4548 18.6933 20.1135 18.528C19.7721 18.3573 19.4815 18.1387 19.2415 17.872L20.0415 17.064C20.4201 17.4907 20.8868 17.704 21.4415 17.704C21.7401 17.704 21.9615 17.6427 22.1055 17.52C22.2495 17.3973 22.3215 17.2347 22.3215 17.032C22.3215 16.8773 22.2788 16.7493 22.1935 16.648C22.1081 16.5413 21.9348 16.4693 21.6735 16.432L21.1215 16.36C20.5295 16.2853 20.0948 16.1067 19.8175 15.824C19.5455 15.5413 19.4095 15.1653 19.4095 14.696C19.4095 14.4453 19.4575 14.216 19.5535 14.008C19.6495 13.8 19.7855 13.6213 19.9615 13.472C20.1428 13.3227 20.3615 13.208 20.6175 13.128C20.8788 13.0427 21.1748 13 21.5055 13C21.9268 13 22.2975 13.0667 22.6175 13.2C22.9375 13.3333 23.2121 13.528 23.4415 13.784L22.6335 14.6C22.5001 14.4453 22.3375 14.32 22.1455 14.224C21.9588 14.1227 21.7215 14.072 21.4335 14.072C21.1615 14.072 20.9588 14.12 20.8255 14.216C20.6921 14.312 20.6255 14.4453 20.6255 14.616C20.6255 14.808 20.6761 14.9467 20.7775 15.032C20.8841 15.1173 21.0548 15.1787 21.2895 15.216L21.8415 15.304C22.4175 15.3947 22.8441 15.5733 23.1215 15.84C23.3988 16.1013 23.5375 16.4747 23.5375 16.96C23.5375 17.2267 23.4895 17.472 23.3935 17.696C23.2975 17.92 23.1561 18.112 22.9695 18.272C22.7881 18.432 22.5615 18.5573 22.2895 18.648C22.0175 18.7333 21.7081 18.776 21.3615 18.776Z" fill="#BAACEC"></path>
    </symbol></defs>
        <use xlink:href="#ars"></use>
      </svg>