<svg xmlns:xlink="http://www.w3.org/1999/xlink" xmlns="http://www.w3.org/2000/svg" data-id="svg-dHdk" class="asset__icon" width="24" height="24"><defs><symbol id="twd" viewBox="0 0 32 32" fill="none" xmlns="http://www.w3.org/2000/svg">
      <circle cx="16" cy="16" r="12" fill="#33296A"></circle>
      <path d="M18.8854 22.9559C18.7418 22.9052 18.5983 22.8714 18.4631 22.8039C17.931 22.542 17.6946 22.0691 17.5932 21.5201C17.5594 21.3596 17.551 21.1907 17.551 21.0218C17.551 18.8681 17.551 16.7144 17.551 14.5608V14.3581H15.127C15.127 14.4763 15.127 14.5861 15.127 14.7043C15.1524 16.1823 15.0003 17.635 14.3838 19.0032C13.725 20.4644 12.7031 21.5623 11.1913 22.162C11.0139 22.2295 10.8112 22.2633 10.6254 22.2549C10.3045 22.2295 10.0511 21.9508 10.0089 21.6383C9.9582 21.2921 10.1271 20.9542 10.4481 20.836C12.1372 20.2279 12.948 18.9019 13.3703 17.255C13.6068 16.3259 13.6321 15.38 13.5983 14.4256C13.5983 14.4087 13.5983 14.3834 13.5815 14.3496C13.5223 14.3496 11.9514 14.3496 11.2166 14.3496C10.8281 14.3496 10.5325 14.0793 10.465 13.6993C10.4058 13.3614 10.6254 13.0067 10.9717 12.8885C11.0562 12.8631 11.1491 12.8463 11.242 12.8463C14.4345 12.8463 17.6185 12.8463 20.8111 12.8463C21.2587 12.8463 21.5965 13.1672 21.5965 13.5979C21.5965 14.0202 21.2587 14.3496 20.8111 14.3496C20.2874 14.3496 19.1219 14.3496 19.0459 14.3496C19.0459 15.5405 19.0459 16.7229 19.0459 17.8968C19.0459 19.0708 19.0121 20.2532 19.0797 21.4694C19.2317 21.4187 19.333 21.3934 19.4175 21.3427C19.9074 21.1063 20.3043 20.7515 20.7013 20.3884C21.1573 19.983 21.8077 20.1519 21.9681 20.7177C22.0357 20.9711 22.0019 21.2245 21.8077 21.4103C21.2418 21.9677 20.6337 22.4829 19.882 22.787C19.7047 22.863 19.5104 22.8968 19.333 22.9559H18.877H18.8854Z" fill="#BAACEC"></path>
      <path d="M16.0392 11.5034C14.4514 11.5034 12.8551 11.5034 11.2673 11.5034C10.9295 11.5034 10.6846 11.3598 10.541 11.0557C10.4143 10.7686 10.465 10.4983 10.6677 10.2534C10.8282 10.0676 11.0393 10 11.2842 10C13.2943 10 15.296 10 17.3061 10C18.4885 10 19.6709 10 20.8533 10C21.2418 10 21.5459 10.2703 21.605 10.6503C21.6557 11.0051 21.4361 11.3598 21.0898 11.4696C20.9969 11.4949 20.8871 11.5034 20.7858 11.5034C19.2064 11.5034 17.627 11.5034 16.0477 11.5034H16.0392Z" fill="#BAACEC"></path>
    </symbol></defs>
        <use xlink:href="#twd"></use>
      </svg>