<svg xmlns:xlink="http://www.w3.org/1999/xlink" xmlns="http://www.w3.org/2000/svg" data-id="svg-YXVk" class="asset__icon" width="24" height="24"><defs><symbol id="aud" viewBox="0 0 32 32" fill="none" xmlns="http://www.w3.org/2000/svg">
      <circle cx="16" cy="16" r="12" fill="#33296A"></circle>
      <path d="M14.3731 20L13.7731 18.008H10.9771L10.3771 20H8.52906L11.2891 11.624H13.5451L16.2691 20H14.3731ZM12.3931 13.28H12.3331L11.4091 16.46H13.3291L12.3931 13.28ZM19.5039 20.984V19.88C18.8959 19.824 18.3839 19.684 17.9679 19.46C17.5519 19.236 17.1919 18.956 16.8879 18.62L17.9679 17.636C18.1999 17.876 18.4559 18.076 18.7359 18.236C19.0159 18.388 19.3239 18.488 19.6599 18.536V16.376C18.7559 16.192 18.1079 15.904 17.7159 15.512C17.3239 15.12 17.1279 14.632 17.1279 14.048C17.1279 13.416 17.3279 12.9 17.7279 12.5C18.1359 12.1 18.7279 11.856 19.5039 11.768V10.64H20.8719V11.768C21.3519 11.824 21.7719 11.944 22.1319 12.128C22.4919 12.304 22.8039 12.544 23.0679 12.848L21.9759 13.832C21.8319 13.672 21.6599 13.528 21.4599 13.4C21.2599 13.272 21.0159 13.176 20.7279 13.112V15.104C21.5759 15.296 22.1999 15.572 22.5999 15.932C23.0079 16.292 23.2119 16.78 23.2119 17.396C23.2119 17.988 23.0199 18.508 22.6359 18.956C22.2599 19.404 21.6719 19.696 20.8719 19.832V20.984H19.5039ZM18.7839 14C18.7839 14.232 18.8519 14.412 18.9879 14.54C19.1319 14.668 19.3559 14.776 19.6599 14.864V13.088C19.3559 13.152 19.1319 13.264 18.9879 13.424C18.8519 13.576 18.7839 13.768 18.7839 14ZM21.5559 17.528C21.5559 17.352 21.5039 17.184 21.3999 17.024C21.2959 16.856 21.0719 16.72 20.7279 16.616V18.512C21.0079 18.432 21.2159 18.308 21.3519 18.14C21.4879 17.964 21.5559 17.76 21.5559 17.528Z" fill="#BAACEC"></path>
    </symbol></defs>
        <use xlink:href="#aud"></use>
      </svg>