<svg xmlns:xlink="http://www.w3.org/1999/xlink" xmlns="http://www.w3.org/2000/svg" data-id="svg-Y2xw" class="asset__icon" width="24" height="24"><defs><symbol id="clp" viewBox="0 0 32 32" fill="none" xmlns="http://www.w3.org/2000/svg">
      <circle cx="16" cy="16" r="12" fill="#33296A"></circle>
      <path d="M24.409 14.9158V15.3927H24.8031C24.9457 15.3927 24.9948 15.4433 24.9948 15.5874C24.9948 15.6273 24.9948 15.6687 24.9948 15.7101C24.9966 15.7307 24.994 15.7515 24.9869 15.7709C24.9799 15.7904 24.9687 15.8081 24.954 15.8227C24.9394 15.8373 24.9217 15.8486 24.9023 15.8556C24.8828 15.8626 24.862 15.8653 24.8414 15.8634C24.6881 15.8634 24.5439 15.8634 24.3952 15.8634C24.3844 15.8617 24.3734 15.8621 24.3628 15.8646C24.3522 15.8671 24.3421 15.8717 24.3333 15.8781C24.3245 15.8846 24.317 15.8927 24.3113 15.902C24.3056 15.9113 24.3018 15.9216 24.3001 15.9324C24.2192 16.2583 24.0411 16.5519 23.7895 16.7743C23.5728 16.9607 23.3171 17.0964 23.0412 17.1714C22.7852 17.2478 22.5201 17.2895 22.253 17.2956C21.793 17.2956 21.3437 17.2956 20.8883 17.2956H20.7825C20.7825 17.3355 20.7825 17.3662 20.7825 17.3984C20.7825 17.9197 20.7825 18.4411 20.7825 18.9624C20.7822 19.0257 20.7735 19.0886 20.7564 19.1495C20.7383 19.2214 20.6948 19.2843 20.6339 19.3266C20.573 19.3689 20.4989 19.3877 20.4252 19.3795C20.1461 19.3887 19.8671 19.3887 19.5895 19.3795C19.54 19.3818 19.4906 19.3731 19.4448 19.3541C19.399 19.3352 19.3579 19.3064 19.3244 19.2699C19.2909 19.2333 19.2658 19.1899 19.251 19.1426C19.2361 19.0953 19.2318 19.0453 19.2384 18.9962C19.2384 17.9903 19.2384 16.9838 19.2384 15.9769V15.8665H18.6557C18.5315 15.8665 18.4916 15.8251 18.4901 15.7024C18.4901 15.6579 18.4901 15.6135 18.4901 15.5705C18.4901 15.4417 18.5422 15.3911 18.6695 15.3911H19.2399V14.9142H18.6587C18.6367 14.9163 18.6144 14.9135 18.5935 14.9061C18.5726 14.8988 18.5536 14.8869 18.5377 14.8715C18.5218 14.856 18.5095 14.8373 18.5015 14.8167C18.4936 14.796 18.4902 14.7738 18.4916 14.7517C18.4916 14.6965 18.4916 14.6413 18.4916 14.5861C18.4904 14.5641 18.4939 14.5421 18.502 14.5216C18.5101 14.5011 18.5225 14.4826 18.5383 14.4674C18.5542 14.4521 18.5731 14.4404 18.5939 14.4331C18.6147 14.4258 18.6368 14.4231 18.6587 14.4251H19.2399V13.39C19.2346 13.3405 19.24 13.2904 19.2557 13.2431C19.2714 13.1958 19.297 13.1524 19.3309 13.1158C19.3647 13.0792 19.4059 13.0502 19.4519 13.0309C19.4978 13.0116 19.5474 13.0023 19.5972 13.0036H19.6386C20.5341 13.0036 21.4311 13.0036 22.3266 13.0159C22.7403 13.0168 23.147 13.1223 23.5089 13.3226C23.8609 13.5185 24.1275 13.8382 24.2572 14.2196C24.3277 14.4205 24.3247 14.422 24.5409 14.422H24.8215C24.8458 14.4179 24.8708 14.4197 24.8943 14.4273C24.9178 14.4349 24.9392 14.4481 24.9565 14.4657C24.9738 14.4833 24.9866 14.5049 24.9938 14.5285C25.001 14.5521 25.0024 14.5772 24.9978 14.6014V14.7256C25.0011 14.7509 24.9986 14.7766 24.9903 14.8008C24.9821 14.8249 24.9683 14.8468 24.9502 14.8647C24.9321 14.8827 24.9101 14.8962 24.8859 14.9043C24.8617 14.9123 24.836 14.9147 24.8108 14.9112L24.409 14.9158ZM22.8664 14.9296L22.8434 14.9188H20.85C20.8055 14.9188 20.7917 14.9372 20.7932 14.9786C20.7932 15.086 20.7932 15.1933 20.7932 15.3007C20.7932 15.3743 20.8086 15.4003 20.8883 15.4003C21.5155 15.4003 22.1442 15.4003 22.7729 15.4003H22.8664V14.9296ZM22.664 15.8696H20.9987C20.7932 15.8696 20.7963 15.8696 20.7932 16.0735C20.7932 16.144 20.8101 16.1686 20.8852 16.167C21.2211 16.167 21.5569 16.167 21.8927 16.167C22.0048 16.1663 22.1167 16.1556 22.227 16.1348C22.4005 16.1037 22.5563 16.0092 22.664 15.8696ZM22.6471 14.422C22.5738 14.3392 22.4839 14.2726 22.3833 14.2267C22.2827 14.1807 22.1735 14.1564 22.0629 14.1552C21.6596 14.1399 21.2532 14.1475 20.8484 14.1475C20.8372 14.1501 20.8267 14.1554 20.8179 14.1628C20.8091 14.1703 20.8022 14.1798 20.7978 14.1905C20.7978 14.2672 20.7978 14.3438 20.7978 14.422H22.6471Z" fill="#BAACEC"></path>
      <path d="M8.53211 19.125C8.53211 19.125 8.42017 19.0698 8.3481 19.0253C7.98155 18.8044 7.67379 18.4983 7.45105 18.1329C7.29216 17.8697 7.17768 17.5822 7.11217 17.2818C6.99556 16.7539 6.96963 16.2099 7.0355 15.6733C7.04624 15.5782 7.13364 15.1596 7.1459 15.1121C7.22135 14.7955 7.35442 14.4956 7.53845 14.2273C7.8689 13.7561 8.34359 13.4052 8.89092 13.2275C9.39635 13.0624 9.92658 12.9861 10.4581 13.0021C10.8576 13.0001 11.256 13.0454 11.6449 13.137C11.9842 13.2146 12.3081 13.3483 12.6033 13.5326C12.7336 13.6154 12.7566 13.7258 12.6508 13.8976C12.5174 14.1322 12.3794 14.3653 12.2399 14.5968C12.1801 14.6965 12.1095 14.7103 11.9869 14.6551C11.8396 14.5823 11.6886 14.5173 11.5345 14.4604C11.0939 14.3138 10.6232 14.2817 10.1667 14.3668C9.81861 14.4219 9.50102 14.5978 9.26967 14.8636C9.06181 15.1173 8.92996 15.4245 8.88938 15.7499C8.84291 16.0271 8.83466 16.3093 8.86485 16.5887C8.88853 17.0374 9.08335 17.46 9.40921 17.7694C9.75179 18.0577 10.1884 18.21 10.6359 18.1973C11.0437 18.2084 11.4495 18.1369 11.8289 17.9872C11.9163 17.9504 12.0007 17.9059 12.0865 17.866C12.1072 17.8505 12.1312 17.84 12.1566 17.8353C12.182 17.8305 12.2082 17.8316 12.2331 17.8386C12.258 17.8456 12.281 17.8582 12.3002 17.8754C12.3195 17.8927 12.3345 17.9141 12.3442 17.9381C12.4975 18.1896 12.6401 18.4426 12.7842 18.6956C12.8117 18.7396 12.8207 18.7926 12.8092 18.8432C12.7977 18.8938 12.7667 18.9377 12.7229 18.9655C12.5341 19.1057 12.3209 19.2097 12.0942 19.2722C11.8125 19.3541 11.5256 19.4171 11.2355 19.4608C10.8121 19.5188 10.3834 19.527 9.95817 19.4853C9.71451 19.4601 9.47238 19.4217 9.23287 19.3703C8.98944 19.32 8.75379 19.2374 8.53211 19.125Z" fill="#BAACEC"></path>
      <path d="M15.4938 17.9673C16.3019 17.9673 17.0103 17.9887 17.7187 17.9596C18.2324 17.9381 18.3214 18.1988 18.3244 18.6343C18.3275 19.0698 18.1956 19.3136 17.7111 19.3059C16.5733 19.2891 15.4355 19.2921 14.2977 19.3059C13.8377 19.3059 13.6384 19.1526 13.6445 18.6665C13.6644 17.0012 13.6614 15.3344 13.6445 13.6676C13.6445 13.2076 13.7978 12.9791 14.2778 13.0067C14.4606 13.019 14.644 13.019 14.8267 13.0067C15.3236 12.973 15.5137 13.1984 15.5076 13.6937C15.4815 15.0906 15.4938 16.4891 15.4938 17.9673Z" fill="#BAACEC"></path>
    </symbol></defs>
        <use xlink:href="#clp"></use>
      </svg>