<svg xmlns:xlink="http://www.w3.org/1999/xlink" xmlns="http://www.w3.org/2000/svg" data-id="svg-dXNkYw==" class="asset__icon" width="24" height="24"><defs><symbol viewBox="0 0 32 32" fill="none" xmlns="http://www.w3.org/2000/svg" id="usdc">
      <circle cx="16" cy="16" r="12" fill="#33296A"></circle>
      <path d="M19 17.1203C19 15.5228 18.0597 14.9751 16.1791 14.7469C14.8358 14.5643 14.5671 14.1992 14.5671 13.5602C14.5671 12.9211 15.0149 12.5104 15.9104 12.5104C16.7164 12.5104 17.1642 12.7843 17.3881 13.4689C17.4329 13.6058 17.5672 13.6971 17.7015 13.6971H18.4179C18.597 13.6971 18.7313 13.5602 18.7313 13.3777V13.332C18.5522 12.3278 17.7462 11.5519 16.7164 11.4606V10.3652C16.7164 10.1826 16.5821 10.0457 16.3582 10H15.6866C15.5074 10 15.3731 10.1369 15.3283 10.3652V11.415C13.985 11.5976 13.1343 12.5104 13.1343 13.6515C13.1343 15.1577 14.0298 15.751 15.9104 15.9793C17.1642 16.2075 17.5672 16.4813 17.5672 17.2117C17.5672 17.942 16.9403 18.444 16.0896 18.444C14.9253 18.444 14.5223 17.9419 14.388 17.2572C14.3433 17.0747 14.209 16.9834 14.0746 16.9834H13.3134C13.1343 16.9834 13 17.1203 13 17.3029V17.3486C13.179 18.4896 13.8955 19.3112 15.3731 19.5395V20.6349C15.3731 20.8174 15.5074 20.9543 15.7313 21H16.4029C16.5821 21 16.7164 20.8631 16.7612 20.6349V19.5395C18.1045 19.3112 19 18.3527 19 17.1203V17.1203Z" fill="#BAACEC"></path>
      <path d="M13.7395 22.474C10.2822 21.1793 8.50917 17.1561 9.79465 13.5953C10.4595 11.6531 11.9222 10.1734 13.7395 9.47974C13.9168 9.38729 14.0054 9.24856 14.0054 9.01727V8.36991C14.0054 8.1849 13.9168 8.04617 13.7395 8C13.6951 8 13.6065 8 13.5621 8.04617C9.35137 9.43346 7.04647 14.1041 8.3762 18.4971C9.17404 21.0867 11.08 23.0752 13.5621 23.9076C13.7395 24 13.9168 23.9076 13.9611 23.7225C14.0054 23.6764 14.0054 23.6301 14.0054 23.5376V22.8902C14.0054 22.7514 13.8724 22.5665 13.7395 22.474ZM18.4379 8.04617C18.2605 7.95372 18.0832 8.04617 18.0389 8.23118C17.9946 8.27746 17.9946 8.32363 17.9946 8.41619V9.06355C17.9946 9.24856 18.1276 9.43346 18.2605 9.52602C21.7178 10.8207 23.4908 14.8439 22.2054 18.4047C21.5405 20.3469 20.0778 21.8266 18.2605 22.5203C18.0832 22.6127 17.9946 22.7514 17.9946 22.9827V23.6301C17.9946 23.8151 18.0832 23.9538 18.2605 24C18.3049 24 18.3935 24 18.4379 23.9538C22.6486 22.5665 24.9535 17.8959 23.6238 13.5029C22.826 10.867 20.8756 8.87854 18.4379 8.04617V8.04617Z" fill="#BAACEC"></path>
    </symbol></defs>
        <use xlink:href="#usdc"></use>
      </svg>