<svg xmlns:xlink="http://www.w3.org/1999/xlink" xmlns="http://www.w3.org/2000/svg" data-id="svg-YnJhemlsbGlhbi1yZWFs" class="asset__icon" width="24" height="24"><defs><symbol fill="none" xmlns="http://www.w3.org/2000/svg" viewBox="0 0 32 32" id="brazillian-real">
      <circle cx="16" cy="16" r="12" fill="#33296A"></circle>
      <path d="M11.1015 20H9.27753V11.624H13.2495C13.6335 11.624 13.9815 11.688 14.2935 11.816C14.6055 11.944 14.8695 12.128 15.0855 12.368C15.3095 12.6 15.4815 12.88 15.6015 13.208C15.7215 13.536 15.7815 13.9 15.7815 14.3C15.7815 14.868 15.6535 15.364 15.3975 15.788C15.1495 16.212 14.7695 16.52 14.2575 16.712L15.9015 20H13.8735L12.4095 16.928H11.1015V20ZM13.0215 15.392C13.2935 15.392 13.5055 15.324 13.6575 15.188C13.8175 15.044 13.8975 14.836 13.8975 14.564V14.036C13.8975 13.764 13.8175 13.56 13.6575 13.424C13.5055 13.28 13.2935 13.208 13.0215 13.208H11.1015V15.392H13.0215Z" fill="#BAACEC"></path>
      <path d="M19.4395 20.984V19.88C18.8315 19.824 18.3195 19.684 17.9035 19.46C17.4875 19.236 17.1275 18.956 16.8235 18.62L17.9035 17.636C18.1355 17.876 18.3915 18.076 18.6715 18.236C18.9515 18.388 19.2595 18.488 19.5955 18.536V16.376C18.6915 16.192 18.0435 15.904 17.6515 15.512C17.2595 15.12 17.0635 14.632 17.0635 14.048C17.0635 13.416 17.2635 12.9 17.6635 12.5C18.0715 12.1 18.6635 11.856 19.4395 11.768V10.64H20.8075V11.768C21.2875 11.824 21.7075 11.944 22.0675 12.128C22.4275 12.304 22.7395 12.544 23.0035 12.848L21.9115 13.832C21.7675 13.672 21.5955 13.528 21.3955 13.4C21.1955 13.272 20.9515 13.176 20.6635 13.112V15.104C21.5115 15.296 22.1355 15.572 22.5355 15.932C22.9435 16.292 23.1475 16.78 23.1475 17.396C23.1475 17.988 22.9555 18.508 22.5715 18.956C22.1955 19.404 21.6075 19.696 20.8075 19.832V20.984H19.4395ZM18.7195 14C18.7195 14.232 18.7875 14.412 18.9235 14.54C19.0675 14.668 19.2915 14.776 19.5955 14.864V13.088C19.2915 13.152 19.0675 13.264 18.9235 13.424C18.7875 13.576 18.7195 13.768 18.7195 14ZM21.4915 17.528C21.4915 17.352 21.4395 17.184 21.3355 17.024C21.2315 16.856 21.0075 16.72 20.6635 16.616V18.512C20.9435 18.432 21.1515 18.308 21.2875 18.14C21.4235 17.964 21.4915 17.76 21.4915 17.528Z" fill="#BAACEC"></path>
    </symbol></defs>
        <use xlink:href="#brazillian-real"></use>
      </svg>