<svg xmlns:xlink="http://www.w3.org/1999/xlink" xmlns="http://www.w3.org/2000/svg" data-id="svg-ZG9sbGFy" class="asset__icon" width="24" height="24"><defs><symbol fill="none" xmlns="http://www.w3.org/2000/svg" viewBox="0 0 32 32" id="dollar">
      <circle cx="16" cy="16" r="12" fill="#33296A"></circle>
      <path d="M15.2959 22.148V20.86C14.5866 20.7947 13.9892 20.6313 13.5039 20.37C13.0186 20.1087 12.5986 19.782 12.2439 19.39L13.5039 18.242C13.7746 18.522 14.0732 18.7553 14.3999 18.942C14.7266 19.1193 15.0859 19.236 15.4779 19.292V16.772C14.4232 16.5573 13.6672 16.2213 13.2099 15.764C12.7526 15.3067 12.5239 14.7373 12.5239 14.056C12.5239 13.3187 12.7572 12.7167 13.2239 12.25C13.6999 11.7833 14.3906 11.4987 15.2959 11.396V10.08H16.8919V11.396C17.4519 11.4613 17.9419 11.6013 18.3619 11.816C18.7819 12.0213 19.1459 12.3013 19.4539 12.656L18.1799 13.804C18.0119 13.6173 17.8112 13.4493 17.5779 13.3C17.3446 13.1507 17.0599 13.0387 16.7239 12.964V15.288C17.7132 15.512 18.4412 15.834 18.9079 16.254C19.3839 16.674 19.6219 17.2433 19.6219 17.962C19.6219 18.6527 19.3979 19.2593 18.9499 19.782C18.5112 20.3047 17.8252 20.6453 16.8919 20.804V22.148H15.2959ZM14.4559 14C14.4559 14.2707 14.5352 14.4807 14.6939 14.63C14.8619 14.7793 15.1232 14.9053 15.4779 15.008V12.936C15.1232 13.0107 14.8619 13.1413 14.6939 13.328C14.5352 13.5053 14.4559 13.7293 14.4559 14ZM17.6899 18.116C17.6899 17.9107 17.6292 17.7147 17.5079 17.528C17.3866 17.332 17.1252 17.1733 16.7239 17.052V19.264C17.0506 19.1707 17.2932 19.026 17.4519 18.83C17.6106 18.6247 17.6899 18.3867 17.6899 18.116Z" fill="#BAACEC"></path>
    </symbol></defs>
        <use xlink:href="#dollar"></use>
      </svg>