<svg width="198" height="164" viewBox="0 0 198 164" fill="none" xmlns="http://www.w3.org/2000/svg">
<path d="M67.8467 -80.2764C68.0096 -83.8455 69.9561 -87.2517 73.3623 -89.1166L80.9035 -93.3332C86.0932 -96.1713 92.6634 -94.3064 95.583 -89.1166L102.801 -75.8969L163.542 42.1008C166.218 47.2906 163.866 54.103 158.758 56.8597C158.108 57.2648 157.461 57.5092 156.811 57.7515C156.243 58.401 155.596 59.0484 154.865 59.535C150.323 63.0226 143.026 62.536 139.375 57.9123L49.4373 -54.57L37.1114 -70.8701C33.463 -75.5732 34.4362 -82.3856 39.1393 -85.9548L46.0331 -91.1445C50.8177 -94.793 57.5487 -93.8198 61.1178 -89.1166L67.8467 -80.2764Z" fill="white"/>
<path d="M98.9799 163.02C44.3197 163.02 0.0410156 118.741 0.0410156 64.0813C0.0410156 9.42104 44.3197 -34.9391 98.9799 -34.9391C153.64 -34.9391 198 9.42104 198 64.0813C198 118.741 153.64 163.02 98.9799 163.02Z" fill="url(#paint0_linear_426_4896)"/>
<path d="M92.4932 7.87715C95.0456 7.87715 97.1149 4.31848 97.1149 -0.0713725C97.1149 -4.46122 95.0456 -8.0199 92.4932 -8.0199C89.9407 -8.0199 87.8716 -4.46122 87.8716 -0.0713725C87.8716 4.31848 89.9407 7.87715 92.4932 7.87715Z" fill="#1F2123"/>
<path d="M134.264 95.7048C133.372 89.7841 123.803 82.7295 112.935 79.8913C102.067 77.0531 94.0387 79.4861 94.9304 85.4068C95.8222 91.246 105.391 98.3007 116.259 101.139C127.046 103.977 135.158 101.544 134.264 95.7048Z" fill="#1F2123"/>
<path d="M142.287 82.8136C144.883 82.0033 147.721 76.3249 147.558 72.7578C147.313 69.1094 143.26 67.2423 140.583 68.1362C137.987 68.9465 137.826 71.9475 137.987 75.5981C138.15 79.1651 139.691 83.626 142.287 82.8136Z" fill="#1F2123"/>
<path d="M169.863 10.8756C169.376 8.3611 163.456 6.57757 159.402 7.46932C149.183 9.49718 152.589 21.9859 162.808 19.8766C166.943 19.0663 170.431 13.39 169.863 10.8756Z" fill="#1F2123"/>
<path d="M100.777 -29.7568C47.7393 -29.7568 4.83887 13.1435 4.83887 66.1016C4.83887 79.645 7.59564 92.5389 12.706 104.217C18.1401 119.87 31.2783 134.547 50.7402 144.848C21.7885 120.68 20.4916 89.8637 42.3051 65.2913C52.2001 54.0995 71.5807 42.421 55.0383 24.9848C55.362 25.5529 55.6063 26.2817 55.6063 27.0127C56.3352 37.1499 34.5216 48.2602 33.3855 28.5539C33.0618 22.6332 33.3856 9.49502 50.4981 -7.7783C67.5291 -25.0516 102.562 -29.7568 102.562 -29.7568H100.777Z" fill="#1F2123"/>
<path d="M64.2819 31.0696C72.3912 45.7491 57.551 57.9121 49.1159 67.8885C29.9776 90.5144 34.6806 123.198 57.0643 141.85C68.8242 151.582 84.3934 157.745 103.129 157.908C129 157.258 152.355 146.148 168.981 128.551C168.981 128.551 141.731 157.097 100.29 146.879C43.7653 133.012 54.6334 65.2947 105.156 67.7277C122.511 68.538 134.027 80.7845 134.027 80.7845C134.027 80.7845 135 69.106 131.026 60.5916C126.97 52.0771 119.347 46.5615 119.347 46.5615C117.319 26.6109 102.235 13.3933 82.447 13.717C76.5263 13.7984 56.252 17.3654 53.6582 7.71484C52.1983 17.6077 60.7942 24.8253 64.2819 31.0696ZM97.8575 42.9924C93.7224 42.9924 90.3956 39.5862 90.3956 35.4512C90.3956 31.3161 93.7203 27.9099 97.8575 27.9099C101.993 27.9099 105.399 31.3161 105.399 35.4512C105.399 39.5862 101.993 42.9924 97.8575 42.9924Z" fill="#1F2123"/>
<path d="M135.724 109.819C117.882 118.983 102.311 113.225 94.4441 103.979C86.2534 94.4103 86.1719 81.0277 96.3906 72.7575C95.6617 72.9204 94.9307 73.1627 94.2812 73.407C80.8193 77.7864 72.0605 89.4649 71.411 103.576C69.9512 138.854 114.474 147.776 145.696 136.179C184.704 121.662 201.816 68.8668 189.001 30.9954C179.027 1.39413 152.914 -22.9339 115.04 -28.6937C121.447 -27.6391 138.397 -23.0174 155.752 -2.74303C175.863 20.6139 171.81 50.0522 170.187 61.4049C168.489 72.7555 161.109 96.7618 135.724 109.819Z" fill="#1F2123"/>
<path d="M146.261 52.3961L56.405 -60.0862L44.1585 -76.2255C43.509 -77.0358 43.6719 -78.2533 44.4822 -78.9007L51.376 -84.0905C52.2678 -84.74 53.4039 -84.5771 54.0513 -83.7668L66.2978 -67.5481L150.233 49.3136C150.802 50.0425 150.557 51.7466 149.505 52.4755C148.531 53.2085 146.827 53.0456 146.261 52.3961ZM151.288 48.5033L84.1391 -65.7646L76.9216 -78.7399C76.435 -79.7132 76.7587 -80.8492 77.6504 -81.3358L85.1918 -85.5524C86.165 -86.039 87.301 -85.7153 87.7876 -84.8235L95.0052 -71.7667L155.665 46.1497C156.071 46.8785 155.584 48.5012 154.45 49.1507C153.398 49.7209 151.693 49.3157 151.288 48.5033Z" fill="#1F2123"/>
<path d="M42.5403 32.4532C45.0548 32.5346 48.2166 27.2634 48.3795 23.0448C48.5424 18.8283 44.8919 15.0963 42.3774 14.9355C39.7815 14.8541 39.3764 18.2603 39.2156 22.4768C39.0527 26.6139 40.0259 32.3717 42.5403 32.4532Z" fill="#1F2123"/>
<path d="M168.49 43.5607C167.111 43.5607 165.407 45.5071 165.407 47.0483C165.407 48.671 167.596 49.968 169.056 49.968C170.434 49.968 170.597 48.7525 170.597 47.1298C170.597 45.5864 169.95 43.5607 168.49 43.5607Z" fill="#1F2123"/>
<path d="M153.072 82.403C151.694 82.403 149.99 84.4308 149.99 85.9721C149.99 87.5133 152.181 88.8917 153.638 88.8917C155.017 88.8917 155.18 87.5948 155.18 86.0535C155.182 84.5123 154.532 82.403 153.072 82.403Z" fill="#1F2123"/>
<path d="M161.097 47.6128C159.8 45.3427 153.392 45.5035 149.662 47.6943C140.417 53.1283 147.879 64.1573 157.204 58.7232C160.934 56.5346 162.475 49.885 161.097 47.6128Z" fill="#1F2123"/>
<defs>
<linearGradient id="paint0_linear_426_4896" x1="83.2356" y1="-16.8485" x2="115.996" y2="161.885" gradientUnits="userSpaceOnUse">
<stop stop-color="#FCCD15"/>
<stop offset="0.2706" stop-color="#FC941A"/>
<stop offset="0.6118" stop-color="#FC3E28"/>
<stop offset="1" stop-color="#9D1432"/>
</linearGradient>
</defs>
</svg>
