<svg width="174" height="55" viewBox="0 0 174 55" fill="none" xmlns="http://www.w3.org/2000/svg">
<g id="Group 1">
<g id="_556486496_1_">
<g id="Group 1597877833">
<path id="Vector" d="M23.0085 8.56787C10.3056 8.56787 0 18.8579 0 31.5763C0 44.2792 10.306 54.5692 23.0085 54.5692C35.7109 54.5692 46.017 44.2792 46.017 31.5763C46.0174 18.8579 35.7113 8.56787 23.0085 8.56787ZM22.7851 24.4501C21.9703 24.4501 21.3149 25.1212 21.3149 25.9359C21.3149 26.7506 21.9699 27.4218 22.7851 27.4218C23.5998 27.4218 24.2708 26.7506 24.2708 25.9359C24.2708 25.1212 23.5998 24.4501 22.7851 24.4501ZM26.1723 13.2973C33.6342 14.4317 38.7792 19.2253 40.7444 25.0575C43.2688 32.5194 39.8976 42.9209 32.2122 45.781C26.0608 48.0659 17.2887 46.3081 17.5763 39.3576C17.7042 36.5773 19.4299 34.2764 22.0823 33.4135C22.2102 33.3654 22.3538 33.3177 22.4978 33.2856C20.4845 34.9154 20.5006 37.5517 22.1144 39.437C23.6644 41.2586 26.7323 42.393 30.2474 40.5875C35.2484 38.015 36.7025 33.2856 37.0383 31.0484C37.358 28.8113 38.1567 23.0112 34.1942 18.4098C30.7741 14.4157 27.4346 13.5051 26.1723 13.2973ZM14.0767 20.4716C14.5882 22.373 18.5827 21.6698 19.7488 21.6542C23.6475 21.5904 26.6195 24.1946 27.0191 28.1254C27.0191 28.1254 28.5209 29.212 29.32 30.8896C30.103 32.5672 29.9113 34.8681 29.9113 34.8681C29.9113 34.8681 27.6424 32.4552 24.2231 32.2956C14.2689 31.8162 12.1276 45.1581 23.2644 47.8902C31.4292 49.9035 36.798 44.2792 36.798 44.2792C33.5223 47.7466 28.9209 49.9356 23.8236 50.0632C20.1327 50.0311 17.0648 48.8169 14.7478 46.8994C10.3377 43.2246 9.41111 36.7851 13.1818 32.3273C14.8437 30.3621 17.7676 27.9653 16.1699 25.0731C15.4827 23.8428 13.7891 22.4208 14.0767 20.4716ZM4.45784 31.9759C4.45784 21.5423 12.9102 13.0895 23.3599 13.0895H23.7113C23.7113 13.0895 16.8085 14.0161 13.4534 17.4198C10.0818 20.823 10.018 23.4116 10.0818 24.5781C10.1299 25.457 10.6731 26.5914 11.8552 26.9428C12.063 26.8148 12.2864 26.7033 12.5103 26.5914C13.6607 26.0322 14.5396 25.3611 14.4598 24.2744C14.4598 24.1308 14.4117 23.9868 14.3479 23.8749C17.6075 27.3102 13.7887 29.6112 11.8392 31.8162C7.54098 36.6576 7.79648 42.7292 13.5011 47.4907C9.66619 45.4613 7.07765 42.5695 6.00743 39.4856C5.00097 37.1847 4.45784 34.6442 4.45784 31.9759Z" fill="white"/>
<path id="Vector_2" d="M16.874 3.13535C16.9061 2.43215 17.2896 1.76104 17.9607 1.3936L19.4465 0.562848C20.469 0.00366259 21.7635 0.371102 22.3387 1.3936L23.7607 3.99819L35.7283 27.2465C36.2554 28.269 35.7921 29.6113 34.7856 30.1544C34.6576 30.2342 34.5301 30.2824 34.4021 30.3301C34.2902 30.4581 34.1627 30.5856 34.0187 30.6815C33.1237 31.3686 31.686 31.2728 30.9668 30.3618L13.2469 8.20011L10.8184 4.9886C10.0996 4.06197 10.2913 2.71976 11.218 2.01657L12.5762 0.994068C13.5189 0.275233 14.845 0.466974 15.5482 1.3936L16.874 3.13535Z" fill="white"/>
<path id="Vector_3" d="M23.0079 51.0705C12.2386 51.0705 3.51465 42.3466 3.51465 31.5772C3.51465 20.8079 12.2386 12.0679 23.0079 12.0679C33.7773 12.0679 42.5173 20.8079 42.5173 31.5772C42.5173 42.3466 33.7773 51.0705 23.0079 51.0705Z" fill="url(#paint0_linear_426_4476)"/>
<path id="Vector_4" d="M21.7299 20.5037C22.2328 20.5037 22.6405 19.8025 22.6405 18.9376C22.6405 18.0727 22.2328 17.3716 21.7299 17.3716C21.227 17.3716 20.8193 18.0727 20.8193 18.9376C20.8193 19.8025 21.227 20.5037 21.7299 20.5037Z" fill="#1F2123"/>
<path id="Vector_5" d="M29.9597 37.8078C29.784 36.6413 27.8987 35.2514 25.7574 34.6922C23.6161 34.133 22.0344 34.6123 22.2101 35.7789C22.3858 36.9293 24.2712 38.3193 26.4124 38.8784C28.5377 39.4376 30.1358 38.9583 29.9597 37.8078Z" fill="#1F2123"/>
<path id="Vector_6" d="M16.8909 16.4927C16.3794 16.4927 15.8042 17.1798 15.8042 17.723C15.8042 18.2661 16.5551 18.7294 17.0666 18.7294C17.562 18.7294 17.6258 18.2982 17.6258 17.7546C17.6258 17.2111 17.3859 16.4927 16.8909 16.4927Z" fill="#1F2123"/>
<path id="Vector_7" d="M31.5404 35.2679C32.0519 35.1083 32.611 33.9895 32.5789 33.2867C32.5308 32.5679 31.7322 32.2 31.2047 32.3761C30.6932 32.5358 30.6615 33.1271 30.6932 33.8463C30.7253 34.5491 31.029 35.428 31.5404 35.2679Z" fill="#1F2123"/>
<path id="Vector_8" d="M36.9734 21.0944C36.8776 20.599 35.7111 20.2476 34.9124 20.4233C32.8991 20.8229 33.5702 23.2834 35.5835 22.8679C36.3982 22.7082 37.0854 21.5898 36.9734 21.0944Z" fill="#1F2123"/>
<path id="Vector_9" d="M25.5336 14.7354C25.246 14.7354 24.9106 15.1188 24.9106 15.4225C24.9106 15.7262 25.3419 15.9977 25.6295 15.9977C25.9011 15.9977 25.9331 15.7422 25.9331 15.4386C25.9331 15.1349 25.8052 14.7354 25.5336 14.7354Z" fill="#1F2123"/>
<path id="Vector_10" d="M23.362 13.0889C12.9124 13.0889 4.45996 21.5412 4.45996 31.9752C4.45996 34.6436 5.00311 37.184 6.00997 39.485C7.08061 42.5689 9.66915 45.4607 13.5036 47.4901C7.79944 42.7286 7.54392 36.6569 11.8417 31.8156C13.7912 29.6105 17.6097 27.3096 14.3504 23.8743C14.4142 23.9862 14.4623 24.1298 14.4623 24.2738C14.6059 26.2711 10.3082 28.4601 10.0843 24.5775C10.0205 23.411 10.0843 20.8224 13.4559 17.4192C16.8114 14.0159 23.7138 13.0889 23.7138 13.0889H23.362Z" fill="#1F2123"/>
<path id="Vector_11" d="M16.1717 25.0731C17.7694 27.9653 14.8455 30.3617 13.1836 32.3273C9.41289 36.7852 10.3395 43.2246 14.7496 46.8995C17.0666 48.8169 20.1341 50.0311 23.8254 50.0632C28.9226 49.9353 33.5241 47.7463 36.7998 44.2792C36.7998 44.2792 31.4309 49.9036 23.2662 47.8903C12.1294 45.1581 14.2707 31.8163 24.2249 32.2956C27.6442 32.4553 29.913 34.8681 29.913 34.8681C29.913 34.8681 30.1048 32.5672 29.3218 30.8896C28.5227 29.2121 27.0208 28.1254 27.0208 28.1254C26.6213 24.1946 23.6493 21.5905 19.7506 21.6542C18.5841 21.6703 14.5896 22.3731 14.0785 20.4717C13.7909 22.4208 15.4845 23.8428 16.1717 25.0731ZM22.7868 27.4222C21.9721 27.4222 21.3167 26.7511 21.3167 25.9364C21.3167 25.1217 21.9717 24.4506 22.7868 24.4506C23.6015 24.4506 24.2726 25.1217 24.2726 25.9364C24.2726 26.7511 23.6015 27.4222 22.7868 27.4222Z" fill="#1F2123"/>
<path id="Vector_12" d="M30.2474 40.5885C26.7322 42.3941 23.6643 41.2597 22.1143 39.4381C20.5005 37.5527 20.4845 34.916 22.4978 33.2866C22.3542 33.3187 22.2102 33.3665 22.0822 33.4146C19.4299 34.2775 17.7042 36.5784 17.5762 39.3587C17.2886 46.3092 26.0607 48.067 32.2122 45.7821C39.8976 42.922 43.2691 32.5201 40.7443 25.0585C38.7792 19.2264 33.6342 14.4332 26.1722 13.2983C27.4346 13.5061 30.7741 14.4167 34.1934 18.4112C38.1558 23.0131 37.3571 28.8132 37.0374 31.0499C36.7029 33.2862 35.2488 38.016 30.2474 40.5885Z" fill="#1F2123"/>
<path id="Vector_13" d="M32.3236 29.2749L14.6197 7.11327L12.2069 3.93345C12.0789 3.7738 12.111 3.53392 12.2707 3.40636L13.6289 2.38386C13.8046 2.2559 14.0284 2.28799 14.156 2.44764L16.5688 5.6431L33.1062 28.6676C33.2181 28.8112 33.1699 29.147 32.9626 29.2906C32.7708 29.435 32.4351 29.4029 32.3236 29.2749ZM33.3139 28.508L20.084 5.99449L18.662 3.43804C18.5661 3.2463 18.6299 3.02246 18.8056 2.92659L20.2914 2.09584C20.4831 1.99996 20.707 2.06374 20.8028 2.23944L22.2249 4.81194L34.1764 28.0442C34.2562 28.1878 34.1604 28.5076 33.9369 28.6355C33.7295 28.7479 33.3938 28.668 33.3139 28.508Z" fill="#1F2123"/>
<path id="Vector_14" d="M11.888 25.3457C12.3834 25.3618 13.0063 24.3232 13.0384 23.4921C13.0705 22.6613 12.3513 21.926 11.8559 21.8943C11.3444 21.8783 11.2646 22.5494 11.2329 23.3801C11.2008 24.1953 11.3926 25.3297 11.888 25.3457Z" fill="#1F2123"/>
<path id="Vector_15" d="M36.703 27.5342C36.4315 27.5342 36.0957 27.9177 36.0957 28.2213C36.0957 28.541 36.5269 28.7966 36.8145 28.7966C37.0861 28.7966 37.1182 28.5571 37.1182 28.2374C37.1182 27.9333 36.9907 27.5342 36.703 27.5342Z" fill="#1F2123"/>
<path id="Vector_16" d="M33.6654 35.187C33.3939 35.187 33.0581 35.5865 33.0581 35.8902C33.0581 36.1939 33.4897 36.4654 33.7769 36.4654C34.0485 36.4654 34.0806 36.2099 34.0806 35.9063C34.081 35.6026 33.9531 35.187 33.6654 35.187Z" fill="#1F2123"/>
<path id="Vector_17" d="M35.2463 28.3325C34.9908 27.8853 33.7284 27.917 32.9935 28.3486C31.172 29.4192 32.6422 31.5922 34.4794 30.5216C35.2142 30.0903 35.5179 28.7802 35.2463 28.3325Z" fill="#1F2123"/>
</g>
<g id="Group">
<path id="Vector_18" d="M58.4949 40.5083V35.8747H61.0835C65.9248 35.8747 68.9289 33.5738 68.9289 29.3237C68.9289 25.2494 65.861 22.9164 60.8761 22.9164C59.1825 22.9164 55.4916 22.8682 54.0054 22.2773C54.2292 22.8365 54.6765 24.4343 54.6765 24.8338V40.5243L58.4949 40.5083ZM60.9715 26.4476C63.4803 26.4476 64.9982 27.3902 64.9982 29.3237C64.9982 31.3691 63.4803 32.3435 60.9715 32.3435H58.4949V26.4476H60.9715ZM75.8313 40.5243V33.51H83.8685V40.5243H87.6873V22.9164H83.8685V30.0109H75.8313V22.9164H72.0125V40.5243H75.8313ZM100.118 40.8601C105.327 40.8601 109.305 36.9454 109.305 31.7366C109.305 26.5595 105.343 22.6131 100.118 22.6131C94.909 22.6131 90.9622 26.5599 90.9622 31.7366C90.9626 36.9454 94.909 40.8601 100.118 40.8601ZM100.118 37.2647C97.1778 37.2647 94.8769 34.8518 94.8769 31.7362C94.8769 28.6205 97.1778 26.2077 100.118 26.2077C103.074 26.2077 105.343 28.6205 105.343 31.7362C105.343 34.8518 103.042 37.2647 100.118 37.2647Z" fill="url(#paint1_linear_426_4476)"/>
<path id="Vector_19" d="M125.011 40.4118V37.2163H115.983V33.3177H124.308V30.1222H115.983V26.2235H124.851V23.0281H115.664C113.491 23.0281 112.404 24.0506 112.404 26.2079V37.2649C112.404 39.4218 113.506 40.4126 115.664 40.4126H125.011V40.4118ZM132.201 40.4118V29.6745C132.201 29.3548 132.409 29.0832 132.728 28.9874C133.032 28.9075 133.351 29.0351 133.511 29.3227L139.391 39.4531C139.95 40.3957 140.893 40.7471 141.947 40.7471C143.465 40.7471 144.504 39.6287 144.504 38.1269V23.0277H141.132V33.7011C141.132 34.0209 140.925 34.3085 140.605 34.3883C140.302 34.4681 139.982 34.3406 139.822 34.0686L133.942 24.0024C133.383 23.0437 132.488 22.6763 131.402 22.6763C129.868 22.6763 128.797 23.7946 128.797 25.3286V40.4122H132.201V40.4118ZM149.298 23.0277V40.4118H152.876V23.0277H149.298ZM160.179 40.4118L163.31 35.3149C163.646 34.7236 163.949 34.1007 164.125 33.4613L164.157 33.3654H164.365C166.171 33.3654 168.791 38.8778 169.718 40.4118H174L169.926 33.9246C169.494 33.2214 169.047 32.4227 169.047 31.5759C169.047 30.7452 169.494 29.9621 169.926 29.2589L173.84 23.0273H169.654L166.57 28.1241C166.219 28.7154 165.931 29.3383 165.771 30.0094L165.755 30.1053H165.547C163.71 30.1053 161.169 24.5768 160.258 23.0268H156.056L159.955 29.2585C160.37 29.9457 160.849 30.7443 160.849 31.5755C160.849 32.4067 160.37 33.2374 159.939 33.9242L155.881 40.4114L160.179 40.4118Z" fill="white"/>
</g>
</g>
</g>
<defs>
<linearGradient id="paint0_linear_426_4476" x1="19.9059" y1="15.6321" x2="26.3606" y2="50.8469" gradientUnits="userSpaceOnUse">
<stop stop-color="#FCCD15"/>
<stop offset="0.2706" stop-color="#FC941A"/>
<stop offset="0.6118" stop-color="#FC3E28"/>
<stop offset="1" stop-color="#9D1432"/>
</linearGradient>
<linearGradient id="paint1_linear_426_4476" x1="81.4021" y1="22.8319" x2="81.4021" y2="52.8479" gradientUnits="userSpaceOnUse">
<stop stop-color="#FCCD15"/>
<stop offset="0.2706" stop-color="#FC941A"/>
<stop offset="0.6118" stop-color="#FC3E28"/>
<stop offset="1" stop-color="#9D1432"/>
</linearGradient>
</defs>
</svg>
