<svg width="44" height="52" viewBox="0 0 44 52" fill="none" xmlns="http://www.w3.org/2000/svg">
<g id="Frame 1597877843">
<g id="Group 1">
<g id="_556486496_1_">
<path id="Vector" d="M21.9473 7.92041C9.83031 7.92041 0 17.7804 0 29.9675C0 42.1395 9.8307 51.9995 21.9473 51.9995C34.0639 51.9995 43.8946 42.1395 43.8946 29.9675C43.895 17.7804 34.0643 7.92041 21.9473 7.92041ZM21.7342 23.139C20.957 23.139 20.3318 23.7821 20.3318 24.5627C20.3318 25.3434 20.9566 25.9865 21.7342 25.9865C22.5113 25.9865 23.1514 25.3434 23.1514 24.5627C23.1514 23.7821 22.5113 23.139 21.7342 23.139ZM24.9652 12.4522C32.083 13.5392 36.9907 18.1325 38.8652 23.721C41.2731 30.8711 38.0575 40.838 30.7265 43.5786C24.8588 45.768 16.4913 44.0837 16.7656 37.4236C16.8877 34.7595 18.5338 32.5547 21.0638 31.7279C21.1859 31.6818 21.3228 31.636 21.4602 31.6053C19.5398 33.167 19.5551 35.6931 21.0944 37.4997C22.5729 39.2451 25.4993 40.3322 28.8524 38.6021C33.6227 36.1371 35.0098 31.6053 35.33 29.4616C35.635 27.3179 36.3968 21.7602 32.6171 17.3511C29.3548 13.5238 26.1693 12.6513 24.9652 12.4522ZM13.4275 19.3268C13.9154 21.1487 17.7257 20.4749 18.838 20.4599C22.5568 20.3988 25.3918 22.8942 25.7729 26.6607C25.7729 26.6607 27.2055 27.702 27.9677 29.3094C28.7146 30.9169 28.5317 33.1217 28.5317 33.1217C28.5317 33.1217 26.3675 30.8096 23.1059 30.6567C13.6108 30.1973 11.5683 42.9817 22.1914 45.5997C29.9796 47.5288 35.1008 42.1395 35.1008 42.1395C31.9762 45.4621 27.587 47.5596 22.7248 47.6818C19.2042 47.6511 16.2778 46.4876 14.0676 44.6503C9.86093 41.129 8.97705 34.9586 12.5738 30.687C14.1591 28.804 16.9481 26.5073 15.4241 23.7359C14.7686 22.5571 13.1531 21.1945 13.4275 19.3268ZM4.25224 30.3503C4.25224 20.3527 12.3148 12.2531 22.2825 12.2531H22.6177C22.6177 12.2531 16.0332 13.141 12.8329 16.4024C9.6168 19.6635 9.55595 22.1439 9.61679 23.2616C9.66271 24.1038 10.1808 25.1908 11.3084 25.5275C11.5066 25.4049 11.7198 25.2981 11.9333 25.1908C13.0307 24.655 13.869 24.0119 13.7929 22.9707C13.7929 22.8331 13.747 22.6951 13.6861 22.5878C16.7955 25.8796 13.1528 28.0844 11.2931 30.1973C7.19318 34.8364 7.43689 40.6543 12.8784 45.2168C9.22037 43.2723 6.75122 40.5013 5.73035 37.5462C4.77032 35.3414 4.25224 32.9072 4.25224 30.3503Z" fill="white"/>
<path id="Vector_2" d="M16.096 2.71518C16.1266 2.04137 16.4925 1.39831 17.1326 1.04622L18.5499 0.25018C19.5252 -0.285639 20.76 0.066447 21.3087 1.04622L22.6651 3.54198L34.0807 25.8189C34.5835 26.7987 34.1416 28.0848 33.1815 28.6052C33.0595 28.6817 32.9378 28.7278 32.8157 28.7736C32.709 28.8962 32.5873 29.0184 32.4499 29.1103C31.5963 29.7687 30.2249 29.6769 29.5388 28.8039L12.6362 7.56831L10.3197 4.491C9.63406 3.60309 9.81697 2.31697 10.7009 1.64315L11.9965 0.663381C12.8957 -0.0254163 14.1607 0.158313 14.8314 1.04622L16.096 2.71518Z" fill="white"/>
<path id="Vector_3" d="M21.9468 48.6468C11.6741 48.6468 3.35254 40.2874 3.35254 29.9681C3.35254 19.6487 11.6741 11.2739 21.9468 11.2739C32.2194 11.2739 40.5563 19.6487 40.5563 29.9681C40.5563 40.2874 32.2194 48.6468 21.9468 48.6468Z" fill="url(#paint0_linear_430_3400)"/>
<path id="Vector_4" d="M20.7274 19.3577C21.2072 19.3577 21.596 18.6858 21.596 17.8571C21.596 17.0283 21.2072 16.3564 20.7274 16.3564C20.2477 16.3564 19.8589 17.0283 19.8589 17.8571C19.8589 18.6858 20.2477 19.3577 20.7274 19.3577Z" fill="#1F2123"/>
<path id="Vector_5" d="M28.5778 35.9389C28.4102 34.8211 26.6118 33.4892 24.5692 32.9534C22.5267 32.4176 21.018 32.8769 21.1856 33.9947C21.3532 35.0971 23.1516 36.429 25.1941 36.9648C27.2213 37.5006 28.7457 37.0413 28.5778 35.9389Z" fill="#1F2123"/>
<path id="Vector_6" d="M16.1118 15.5142C15.6239 15.5142 15.0752 16.1726 15.0752 16.693C15.0752 17.2135 15.7915 17.6574 16.2794 17.6574C16.7519 17.6574 16.8128 17.2442 16.8128 16.7234C16.8128 16.2026 16.5839 15.5142 16.1118 15.5142Z" fill="#1F2123"/>
<path id="Vector_7" d="M30.0859 33.5047C30.5738 33.3517 31.1071 32.2796 31.0765 31.6062C31.0306 30.9174 30.2688 30.5649 29.7656 30.7337C29.2778 30.8867 29.2476 31.4532 29.2778 32.1424C29.3084 32.8159 29.598 33.658 30.0859 33.5047Z" fill="#1F2123"/>
<path id="Vector_8" d="M35.2681 19.9238C35.1767 19.4491 34.064 19.1124 33.3021 19.2808C31.3817 19.6636 32.0218 22.0214 33.9423 21.6232C34.7194 21.4702 35.3749 20.3986 35.2681 19.9238Z" fill="#1F2123"/>
<path id="Vector_9" d="M24.3559 13.8306C24.0816 13.8306 23.7617 14.198 23.7617 14.489C23.7617 14.78 24.1731 15.0402 24.4474 15.0402C24.7064 15.0402 24.7371 14.7954 24.7371 14.5044C24.7371 14.2134 24.615 13.8306 24.3559 13.8306Z" fill="#1F2123"/>
<path id="Vector_10" d="M22.2846 12.2529C12.317 12.2529 4.25439 20.3521 4.25439 30.3501C4.25439 32.907 4.77249 35.3413 5.73292 37.546C6.75418 40.5011 9.22333 43.2721 12.8809 45.2167C7.43985 40.6541 7.19611 34.8362 11.2957 30.1972C13.1553 28.0842 16.7976 25.8795 13.6887 22.5877C13.7495 22.6949 13.7955 22.8325 13.7955 22.9705C13.9324 24.8843 9.83287 26.9818 9.61935 23.2615C9.55852 22.1437 9.61936 19.6633 12.8354 16.4023C16.0362 13.1412 22.6202 12.2529 22.6202 12.2529H22.2846Z" fill="#1F2123"/>
<path id="Vector_11" d="M15.4257 23.7363C16.9497 26.5077 14.1607 28.8039 12.5754 30.6874C8.97865 34.959 9.86253 41.1294 14.0692 44.6506C16.2794 46.4879 19.2054 47.6515 22.7264 47.6822C27.5886 47.5596 31.9778 45.462 35.1024 42.1399C35.1024 42.1399 29.9812 47.5292 22.193 45.6C11.5699 42.9821 13.6124 30.1977 23.1075 30.657C26.3691 30.81 28.5333 33.122 28.5333 33.122C28.5333 33.122 28.7162 30.9172 27.9693 29.3098C27.2071 27.7023 25.7745 26.6611 25.7745 26.6611C25.3934 22.8945 22.5584 20.3992 18.8396 20.4603C17.7269 20.4757 13.9166 21.1491 13.4291 19.3271C13.1547 21.1948 14.7702 22.5574 15.4257 23.7363ZM21.7358 25.9872C20.9586 25.9872 20.3334 25.3442 20.3334 24.5635C20.3334 23.7828 20.9582 23.1398 21.7358 23.1398C22.5129 23.1398 23.153 23.7828 23.153 24.5635C23.153 25.3442 22.5129 25.9872 21.7358 25.9872Z" fill="#1F2123"/>
<path id="Vector_12" d="M28.8526 38.6035C25.4995 40.3336 22.5731 39.2465 21.0946 37.5011C19.5553 35.6945 19.54 33.168 21.4604 31.6067C21.3235 31.6374 21.1861 31.6832 21.064 31.7293C18.534 32.5561 16.8879 34.7609 16.7659 37.425C16.4915 44.0851 24.859 45.7694 30.7267 43.58C38.0577 40.8394 41.2737 30.8722 38.8654 23.7224C36.9909 18.1339 32.0832 13.541 24.9654 12.4536C26.1695 12.6527 29.355 13.5252 32.6166 17.3529C36.3963 21.7624 35.6344 27.3201 35.3295 29.4634C35.0104 31.6063 33.6233 36.1385 28.8526 38.6035Z" fill="#1F2123"/>
<path id="Vector_13" d="M30.8325 27.7624L13.9452 6.52675L11.6437 3.4798C11.5216 3.32682 11.5522 3.09696 11.7045 2.97474L13.0001 1.99497C13.1677 1.87235 13.3812 1.9031 13.5029 2.05608L15.8045 5.11801L31.579 27.1804C31.6858 27.318 31.6399 27.6398 31.4421 27.7774C31.2592 27.9158 30.9389 27.885 30.8325 27.7624ZM31.7772 27.0275L19.1575 5.45472L17.801 3.0051C17.7096 2.82136 17.7704 2.60688 17.938 2.51501L19.3553 1.71897C19.5382 1.62711 19.7517 1.68822 19.8432 1.85658L21.1996 4.32158L32.5999 26.5831C32.6761 26.7207 32.5846 27.0271 32.3715 27.1497C32.1737 27.2573 31.8534 27.1808 31.7772 27.0275Z" fill="#1F2123"/>
<path id="Vector_14" d="M11.3395 23.9969C11.8121 24.0123 12.4063 23.0171 12.4369 22.2207C12.4675 21.4246 11.7815 20.7201 11.3089 20.6897C10.821 20.6743 10.7449 21.3174 10.7147 22.1134C10.6841 22.8945 10.867 23.9815 11.3395 23.9969Z" fill="#1F2123"/>
<path id="Vector_15" d="M35.01 26.0942C34.7509 26.0942 34.4307 26.4617 34.4307 26.7527C34.4307 27.059 34.842 27.3039 35.1163 27.3039C35.3754 27.3039 35.406 27.0744 35.406 26.7681C35.406 26.4767 35.2843 26.0942 35.01 26.0942Z" fill="#1F2123"/>
<path id="Vector_16" d="M32.113 33.4272C31.854 33.4272 31.5337 33.8101 31.5337 34.1011C31.5337 34.392 31.9454 34.6523 32.2194 34.6523C32.4784 34.6523 32.509 34.4074 32.509 34.1164C32.5094 33.8255 32.3874 33.4272 32.113 33.4272Z" fill="#1F2123"/>
<path id="Vector_17" d="M33.6206 26.8596C33.3769 26.4311 32.1727 26.4614 31.4717 26.875C29.7341 27.9009 31.1365 29.9831 32.889 28.9572C33.59 28.544 33.8796 27.2886 33.6206 26.8596Z" fill="#1F2123"/>
</g>
</g>
</g>
<defs>
<linearGradient id="paint0_linear_430_3400" x1="18.9878" y1="14.6893" x2="25.1991" y2="48.4225" gradientUnits="userSpaceOnUse">
<stop stop-color="#FCCD15"/>
<stop offset="0.2706" stop-color="#FC941A"/>
<stop offset="0.6118" stop-color="#FC3E28"/>
<stop offset="1" stop-color="#9D1432"/>
</linearGradient>
</defs>
</svg>
