<svg width="142" height="120" viewBox="0 0 142 120" fill="none" xmlns="http://www.w3.org/2000/svg">
<g id="stellar-xlm-logo 1" clip-path="url(#clip0_426_4919)">
<g id="Layer 2">
<g id="Layer 1">
<path id="Vector" d="M121.958 15.6958L104.86 24.3958L22.2949 66.3958C22.0157 64.2691 21.8752 62.1266 21.8743 59.9818C21.8856 51.4239 24.1354 43.0175 28.4007 35.5951C32.6661 28.1728 38.799 21.9921 46.1921 17.6654C53.5852 13.3386 61.9818 11.0158 70.5503 10.9271C79.1188 10.8384 87.5619 12.9869 95.0432 17.1598L104.83 12.1798L106.29 11.4358C97.3245 4.93708 86.7347 1.04052 75.6907 0.176717C64.6467 -0.687088 53.5787 1.5155 43.7097 6.54106C33.8408 11.5666 25.5553 19.2194 19.769 28.6537C13.9828 38.088 10.921 48.9363 10.9222 59.9998C10.9222 61.5278 10.9802 63.0498 11.0964 64.5658C11.2591 66.7126 10.7823 68.8595 9.72612 70.7364C8.66993 72.6133 7.0815 74.1363 5.16069 75.1138L0 77.7418V89.9997L15.1937 82.2657L20.1141 79.7577L24.9623 77.2918L112.003 32.9998L121.784 28.0257L142 17.7358V5.48375L121.958 15.6958Z" fill="white"/>
<path id="Vector_2" d="M142 30L29.9068 87L20.1261 91.986L0 102.228V114.474L19.9879 104.304L37.0861 95.604L119.735 53.544C120.015 55.6847 120.155 57.8412 120.156 60C120.15 68.5678 117.901 76.9851 113.632 84.4165C109.362 91.8478 103.221 98.0347 95.8171 102.363C88.4133 106.691 80.0048 109.01 71.4263 109.089C62.8478 109.169 54.3977 107.006 46.9148 102.816L46.314 103.134L35.7043 108.534C44.6674 115.033 55.2551 118.931 66.2973 119.796C77.3396 120.662 88.4066 118.463 98.2755 113.441C108.144 108.418 116.431 100.769 122.22 91.3384C128.009 81.9075 131.074 71.0619 131.078 60C131.078 58.458 131.018 56.916 130.904 55.392C130.741 53.2459 131.217 51.0997 132.272 49.2231C133.327 47.3464 134.914 45.8229 136.833 44.844L142 42.216V30Z" fill="white"/>
</g>
</g>
</g>
<defs>
<clipPath id="clip0_426_4919">
<rect width="142" height="120" fill="white"/>
</clipPath>
</defs>
</svg>
