<svg width="326" height="200" viewBox="0 0 326 200" fill="none" xmlns="http://www.w3.org/2000/svg">
<rect x="0.813477" y="37" width="79" height="56" rx="16" fill="#E2A01C"/>
<rect x="271.813" y="37" width="80" height="56" rx="16" fill="#E2571C"/>
<rect x="90.8135" y="19" width="80" height="74" rx="16" fill="#E3871C"/>
<rect x="181.813" width="79" height="93" rx="16" fill="#E26F1C"/>
<g opacity="0.2">
<mask id="mask0_426_4606" style="mask-type:alpha" maskUnits="userSpaceOnUse" x="90" y="102" width="81" height="46">
<rect opacity="0.6" width="80" height="46" rx="16" transform="matrix(1 0 0 -1 90.8135 148)" fill="white"/>
</mask>
<g mask="url(#mask0_426_4606)">
<path d="M91.8135 104L170.813 25" stroke="white"/>
<path d="M91.8135 111L170.813 32" stroke="white"/>
<path d="M91.8135 118L170.813 39" stroke="white"/>
<path d="M91.8135 125L170.813 46" stroke="white"/>
<path d="M91.8135 132L170.813 53" stroke="white"/>
<path d="M91.8135 139L170.813 60" stroke="white"/>
<path d="M91.8135 146L170.813 67" stroke="white"/>
<path d="M91.8135 153L170.813 74" stroke="white"/>
<path d="M91.8135 160L170.813 81" stroke="white"/>
<path d="M91.8135 167L170.813 88" stroke="white"/>
<path d="M91.8135 174L170.813 95" stroke="white"/>
<path d="M91.8135 181L170.813 102" stroke="white"/>
<path d="M91.8135 188L170.813 109" stroke="white"/>
<path d="M91.8135 195L170.813 116" stroke="white"/>
<path d="M91.8135 202L170.813 123" stroke="white"/>
<path d="M91.8135 209L170.813 130" stroke="white"/>
<path d="M91.8135 216L170.813 137" stroke="white"/>
<path d="M91.8135 223L170.813 144" stroke="white"/>
</g>
</g>
<g opacity="0.2">
<mask id="mask1_426_4606" style="mask-type:alpha" maskUnits="userSpaceOnUse" x="181" y="102" width="81" height="91">
<rect opacity="0.6" width="80" height="91" rx="16" transform="matrix(1 0 0 -1 181.813 193)" fill="white"/>
</mask>
<g mask="url(#mask1_426_4606)">
<path d="M182.813 104L261.813 25" stroke="white"/>
<path d="M182.813 111L261.813 32" stroke="white"/>
<path d="M182.813 118L261.813 39" stroke="white"/>
<path d="M182.813 125L261.813 46" stroke="white"/>
<path d="M182.813 132L261.813 53" stroke="white"/>
<path d="M182.813 139L261.813 60" stroke="white"/>
<path d="M182.813 146L261.813 67" stroke="white"/>
<path d="M182.813 153L261.813 74" stroke="white"/>
<path d="M182.813 160L261.813 81" stroke="white"/>
<path d="M182.813 167L261.813 88" stroke="white"/>
<path d="M182.813 174L261.813 95" stroke="white"/>
<path d="M182.813 181L261.813 102" stroke="white"/>
<path d="M182.813 188L261.813 109" stroke="white"/>
<path d="M182.813 195L261.813 116" stroke="white"/>
<path d="M182.813 202L261.813 123" stroke="white"/>
<path d="M182.813 209L261.813 130" stroke="white"/>
<path d="M182.813 216L261.813 137" stroke="white"/>
<path d="M182.813 223L261.813 144" stroke="white"/>
<path d="M182.813 230L261.813 151" stroke="white"/>
<path d="M182.813 237L261.813 158" stroke="white"/>
<path d="M182.813 244L261.813 165" stroke="white"/>
<path d="M182.813 251L261.813 172" stroke="white"/>
<path d="M182.813 258L261.813 179" stroke="white"/>
<path d="M182.813 265L261.813 186" stroke="white"/>
<path d="M182.813 272L261.813 193" stroke="white"/>
</g>
</g>
<g opacity="0.2">
<mask id="mask2_426_4606" style="mask-type:alpha" maskUnits="userSpaceOnUse" x="0" y="102" width="81" height="91">
<rect opacity="0.6" width="80" height="91" rx="16" transform="matrix(1 0 0 -1 0.813477 193)" fill="white"/>
</mask>
<g mask="url(#mask2_426_4606)">
<path d="M1.81348 104L80.8135 25" stroke="white"/>
<path d="M1.81348 111L80.8135 32" stroke="white"/>
<path d="M1.81348 118L80.8135 39" stroke="white"/>
<path d="M1.81348 125L80.8135 46" stroke="white"/>
<path d="M1.81348 132L80.8135 53" stroke="white"/>
<path d="M1.81348 139L80.8135 60" stroke="white"/>
<path d="M1.81348 146L80.8135 67" stroke="white"/>
<path d="M1.81348 153L80.8135 74" stroke="white"/>
<path d="M1.81348 160L80.8135 81" stroke="white"/>
<path d="M1.81348 167L80.8135 88" stroke="white"/>
<path d="M1.81348 174L80.8135 95" stroke="white"/>
<path d="M1.81348 181L80.8135 102" stroke="white"/>
<path d="M1.81348 188L80.8135 109" stroke="white"/>
<path d="M1.81348 195L80.8135 116" stroke="white"/>
<path d="M1.81348 202L80.8135 123" stroke="white"/>
<path d="M1.81348 209L80.8135 130" stroke="white"/>
<path d="M1.81348 216L80.8135 137" stroke="white"/>
<path d="M1.81348 223L80.8135 144" stroke="white"/>
<path d="M1.81348 230L80.8135 151" stroke="white"/>
<path d="M1.81348 237L80.8135 158" stroke="white"/>
<path d="M1.81348 244L80.8135 165" stroke="white"/>
<path d="M1.81348 251L80.8135 172" stroke="white"/>
<path d="M1.81348 258L80.8135 179" stroke="white"/>
<path d="M1.81348 265L80.8135 186" stroke="white"/>
<path d="M1.81348 272L80.8135 193" stroke="white"/>
</g>
</g>
<g opacity="0.2">
<mask id="mask3_426_4606" style="mask-type:alpha" maskUnits="userSpaceOnUse" x="271" y="102" width="81" height="98">
<rect opacity="0.6" width="80" height="98" rx="16" transform="matrix(1 0 0 -1 271.813 200)" fill="white"/>
</mask>
<g mask="url(#mask3_426_4606)">
<path d="M272.813 117.186L351.813 38.186" stroke="white"/>
<path d="M272.813 124.186L351.813 45.186" stroke="white"/>
<path d="M272.813 131.186L351.813 52.186" stroke="white"/>
<path d="M272.813 138.186L351.813 59.186" stroke="white"/>
<path d="M272.813 145.186L351.813 66.186" stroke="white"/>
<path d="M272.813 152.186L351.813 73.186" stroke="white"/>
<path d="M272.813 159.186L351.813 80.186" stroke="white"/>
<path d="M272.813 166.186L351.813 87.186" stroke="white"/>
<path d="M272.813 173.186L351.813 94.186" stroke="white"/>
<path d="M272.813 180.186L351.813 101.186" stroke="white"/>
<path d="M272.813 187.186L351.813 108.186" stroke="white"/>
<path d="M272.813 194.186L351.813 115.186" stroke="white"/>
<path d="M272.813 201.186L351.813 122.186" stroke="white"/>
<path d="M272.813 208.186L351.813 129.186" stroke="white"/>
<path d="M272.813 215.186L351.813 136.186" stroke="white"/>
<path d="M272.813 222.186L351.813 143.186" stroke="white"/>
<path d="M272.813 229.186L351.813 150.186" stroke="white"/>
<path d="M272.813 236.186L351.813 157.186" stroke="white"/>
<path d="M272.813 243.186L351.813 164.186" stroke="white"/>
<path d="M272.813 250.186L351.813 171.186" stroke="white"/>
<path d="M272.813 257.186L351.813 178.186" stroke="white"/>
<path d="M272.813 264.186L351.813 185.186" stroke="white"/>
<path d="M272.813 271.186L351.813 192.186" stroke="white"/>
<path d="M272.813 278.186L351.813 199.186" stroke="white"/>
</g>
</g>
</svg>
